<svg width="32" height="32" viewBox="0 0 192 192" fill="none" xmlns="http://www.w3.org/2000/svg">
    <path
        d="M77.2316 79.283V88.4657L69.4768 96.1764L77.2316 103.887V112.775L20.5015 169.182C-6.84416 141.771 -6.83236 97.3411 20.5281 69.9446L44.2339 46.208L77.2316 79.283Z"
        fill="white" />
    <path
        d="M22.9103 20.3857C50.3535 -6.92403 94.6976 -6.77572 121.956 20.7168L145.585 44.5495L112.413 77.5601H103.71L95.9544 69.8489L88.1991 77.5601H79.5965L22.9103 20.3857Z"
        fill="white" />
    <path
        d="M169.09 171.614C141.647 198.924 97.3026 198.776 70.0446 171.283L46.4151 147.451L78.8826 115.14L88.4557 115.047L95.9544 122.504L103.601 114.9L112.771 114.811L169.09 171.614Z"
        fill="white" />
    <path
        d="M171.499 22.8178C198.844 50.2288 198.832 94.6593 171.472 122.056L147.766 145.792L114.678 112.626V103.887L122.433 96.1762L114.678 88.4655V79.3151L171.499 22.8178Z"
        fill="white" />
</svg>
