<?xml version="1.0" standalone="yes"?>
<svg xmlns="http://www.w3.org/2000/svg" width="140" height="140">
<path style="fill:#040404; stroke:none;" d="M0 0L0 140L140 140L140 0L0 0z"/>
<path style="fill:#f6f6f6; stroke:none;" d="M8 61L10.0556 62.3333L11.0556 62.7222L13 62.8611L14 62.6667L15 62.2778L17 60.8889L18 59.9722L19 59L21 57L23 55L27 51L38 40L37.5556 41.5L37.3333 42.0556L37 43.0556L36.6667 44L36 46L35.3889 48L34.8611 50L34.6111 51L34.3056 52L34 53L33.6667 54L33 56L32.6944 57L32.3889 58L31.8611 60L31.6111 61L31 63L30.6667 64L30 66L29.3889 68L29.1389 69L28.6111 71L28.3056 72L27.6944 74L27.4167 75L27.1111 77L27.1389 78L27.3333 78.9722L27.7222 79.8889L28.3333 80.6667L29.1111 81.2778L31 81.8056L33 81.5L34 81.0556L36 79.75L38 77.9722L40 76L43 73L65 51L70 46L72 44L74 42L76 40.0833L78 38.3889L79 37.6389L80 36.8889L82 35.6111L83 35.1111L85 34.4167L87 34.1667L89 34.4722L90 34.8611L91 35.2778L93 36.4722L93.9722 37.25L95.75 39.0278L97.1389 41L97.7222 42L98.1389 43L98.6667 45L98.6944 46L98.2778 48L97.9167 49L96.9167 51L95.5833 52.9722L94.7778 53.9167L92.9722 55.6111L92 56.3889L90 58.0833L89 59.0278L87 61L86 62L83 65L70 78L67 81L65 83L63.0278 85L61.3333 87L60.4444 89L60.4444 89.9722L60.75 90.8889L62.1111 92.2778L63.0278 92.6667L65 92.8611L67 92.2778L69 90.8889L71 89L72 88L74 86L76 84L87 73L90 70L91 69L92 68L94 66.0833L95 65.2222L96 64.3889L98 62.7778L99 61.9167L101 60.0278L103 58.25L104 57.5L106 56.5L108 56.0833L109 56.0556L110 56.0833L112 56.5L113 56.9167L114 57.4167L115.972 58.6944L116.917 59.4167L118.528 61.0833L119.139 62.0278L120.139 64L120.528 65L120.889 67L120.889 68L120.583 70L120.278 71L119.889 72L118.694 74L117.889 75L116.972 76L116 77L115 78L113 80L100 93L97 96L96 97L94 98.9722L93 99.9167L91 101.611L90 102.389L88 104.083L87 105.028L85 107L84 108L82 110L81 111L79.0278 113L77.25 115L76.5 116L75.5 118L75.0833 120L75.0278 122L75.0833 123L75.5 125L76.5 127L77.25 128L78.0833 129L80 131L81 132L83 133.972L84 134.889L86 136.278L87.9444 136.889L89.5 137L91 137L92 136L92 134.5L91.8889 132.944L91.6667 132L91.2778 131L89.8889 129L88 127L87 126L85.1389 124L84.4444 123L84.0556 122L84.0556 121L84.4444 120L86.0278 118L88 116L90 114.028L91 113.083L93 111.389L95 109.778L96 108.917L98 107L100 105L104 101L116 89L119 86L121 84L122 83L123.917 81L125.528 79L126.722 77L127.167 76L127.611 75L128.306 73L128.583 72L128.917 70L128.972 69L129 67L128.917 65L128.583 63L127.972 61L127.583 60L126.583 58L125.972 57L125.306 56.0278L124.583 55.0833L122.917 53.4167L121 52.0278L119 50.8333L118 50.2778L116 49.4444L114 48.8611L112 48.3889L110 48.0833L109.056 48.0278L108.056 48L106 48L106 44.9444L106 44L106 43L105.917 41L105.75 40L105.528 39L105.139 38L104.722 37L103.528 35L102.75 34L100.972 32.0278L100 31.0833L98 29.5L96 28.4167L95 28.0278L93 27.4167L91 27.0833L89 27L88.0556 27L87.0556 27L85 27L85 23.9444L85 23L85 22L84.9167 20L84.5833 18L83.9722 16L83.6111 15L82.7222 13L81.5278 11L80.75 10L78.9722 8.08333L78 7.25L77 6.47223L75 5.27777L74 4.86111L73 4.44444L71 3.86111L70 3.63889L69 3.38889L67 3.08333L65 3.11111L64 3.33334L63 3.72223L62 4.33334L60 6.02777L58 8L57 9L55 11L49 17L20 46L16 50L14 52L13 53L11.0833 55L9.5 57L8.94444 57.9444L8.27778 59.5L8 61z"/>
<path style="fill:#040404; stroke:none;" d="M51 26L51 28L52.5 29.4167L53.0556 29.8333L54.0556 30.6389L56 31.9722L58 33.0833L59 33.5L60 33.75L61 33.9167L63 34L64 34L65 34L67 33.9167L68 33.75L69 33.5L71 32.5L72 31.75L72.9722 30.9167L73.9167 29.9722L75.5 28L76.5 26L76.75 25L76.9722 23L76.9722 21L76.75 19L76.0556 17L75.5 16L73.9167 14.0833L72 12.5L70 11.5L68 11.1944L66 11.7222L65 12.3333L63 14.0278L62 15L60 17L59 18L57 20L51 26M47 34L46.9167 35.5L46.5833 37.0556L46.3056 38L45.6944 40L45.3889 41L44.8611 43L44.6111 44L44 46L43.3333 48L43 49L42.3889 51L42.1389 52L41.6111 54L41.3056 55L41 56L40.3333 58L40 59L39.4167 61L39.2222 61.9444L39.0278 63.5L39 65L40.5 64.2222L41.0556 63.6944L42.0556 62.8889L43 61.9722L44 61L45 60L47 58L54 51L57 48L58 47L58.9722 46L60.6667 44.0556L61.6389 42.5L62 41L60.5 40.9167L58.9444 40.5833L57 39.9167L55 38.9167L54 38.2778L53 37.5833L52 36.8056L50.0556 35.3056L49.0556 34.7222L48.5 34.3611L47 34z"/>
<path style="fill:#f6f6f6; stroke:none;" d="M112 64L110.5 64L108.944 64.1111L108 64.3333L107 64.7222L106 65.3056L105 66.0278L103 67.6111L102 68.3889L100 70.0833L99 71.0278L97 73L95 75L91 79L82 88L79 91L78 92L76 94L74 95.9167L72 97.5278L71 98.1389L70 98.7222L68 99.5278L67 99.75L66 99.9167L64 99.9167L62 99.5278L61 99.1389L59 98.1389L58.0278 97.5278L56.25 95.9167L55.5 94.9722L54.4167 93L54.0278 92L53.7222 91L53.5 90L53.5 88L54.0278 86L54.4167 85L55.5 83L56.25 82L57.0833 81L59 79L61 77L64 74L75 63L79 59L81 57L83 55L84.9722 53.0833L86.7778 51.4167L87.5833 50.6944L88.9722 49.3056L89.5833 48.5833L90.4722 46.9167L90.5833 45.0278L89.6667 43.3333L88.8889 42.7222L87 42.1944L85 42.5L83 43.5L82 44.25L80 46.0278L78 48L76 50L71 55L56 70L53 73L52 74L50.0833 76L48.4722 78L47.2778 80L46.8333 81L46.3889 82L45.6944 84L45.4167 85L45.0833 87L45.0278 89L45.0833 90L45.4167 92L46 94L46.3333 95L47.0833 97L47.5556 98L48.0833 99L49.4167 100.972L50.2222 101.917L52.0278 103.583L54 104.972L55 105.583L57 106.583L58 106.972L60 107.583L62 107.917L64 108L65 108L67 107.972L68 107.917L70 107.583L72 106.972L73 106.583L75 105.583L76 104.972L78 103.583L80 101.917L82 100L83 99L85 97L99 83L101 81L102 80L104 78.0278L105 77.0833L107 75.3889L108 74.6111L109.917 72.9167L111.5 71L112.056 70L112.667 68L112.694 67.0556L112.556 66.0556L112 64z"/>
</svg>
