<?xml version="1.0" standalone="yes"?>
<svg xmlns="http://www.w3.org/2000/svg" width="960" height="140">
<path style="fill:#030303; stroke:none;" d="M0 0L0 140L179 140L515 140L553 140L554 140L594 140L596 140L601 140L605 140L606 140L608 140L627 140L628 140L632 140L636 140L641 140L660 140L692 140L694 140L707 140L715 140L719 140L725 140L741 140L742 140L746 140L752 140L756 140L757 140L765 140L775 140L791 140L794 140L795 140L800 140L808 140L812 140L813 140L814 140L822 140L826 140L832 140L833 140L834 140L838 140L846 140L849 140L851 140L855 140L863 140L868 140L869 140L871 140L875 140L880 140L885 140L887 140L891 140L901 140L904 140L909 140L919 140L924 140L930 140L938 140L940 140L948 140L953 140L956 140L960 140L960 135L960 127L960 0L958.5 0L956 0L955 0L953 0L945 0L940 0L937 0L933 0L925 0L922 0L920 0L918 0L915 0L913 0L905 0L902 0L898 0L894 0L888 0L886 0L885 0L884 0L881 0L879 0L878 0L874 0L868 0L864 0L862 0L861 0L853 0L848 0L845 0L841 0L833 0L824 0L820 0L812 0L808 0L805 0L799 0L795 0L789 0L784 0L780 0L776 0L770 0L765 0L761 0L755 0L750 0L746 0L745 0L739 0L738 0L734 0L728 0L726 0L723 0L716 0L708 0L706 0L704 0L703 0L702 0L701 0L699 0L697 0L694 0L688 0L687 0L664 0L660 0L654 0L650 0L644 0L639 0L634 0L624 0L542 0L454 0L333 0L0 0z"/>
<path style="fill:#f3f3f3; stroke:none;" d="M49 40L48.5556 41.5L48.3333 42.0556L48 43.0556L47.6667 44L47 46L46.3889 48L45.8611 50L45.6111 51L45.3056 52L45 53L44.6667 54L44 56L43.6944 57L43.3889 58L42.8611 60L42.6111 61L42 63L41.3333 65L41 66L40.3889 68L40.1389 69L39.6111 71L39.3056 72L38.6944 74L38.4167 75L38.1111 77L38.1389 78L38.3333 78.9722L38.7222 79.8889L39.3333 80.6667L40.1111 81.2778L41.0278 81.6389L42 81.8056L44 81.5L46 80.5L47 79.75L48 78.9167L50 77L52 75L55 72L77 50L81 46L83 44L84.9722 42.0833L85.9167 41.2222L86.7778 40.4167L88.3889 39L89.2222 38.3056L91.0278 36.8889L93 35.6111L95 34.7222L97 34.25L98 34.1667L99 34.2778L101 34.8611L102 35.2778L104 36.4722L105.917 38.0833L106.75 39.0278L108.139 41L108.722 42L109.139 43L109.667 45L109.694 46L109.556 47L108.917 49L107.917 51L106.583 52.9167L104.917 54.6111L103.972 55.3889L102 57.0833L101 58.0278L99 60L97 62L94 65L81 78L78 81L76 83L74.0278 85L72.3333 87L71.4444 89L71.4444 89.9722L71.75 90.8889L73.1111 92.2778L74.0278 92.6667L76 92.8611L78 92.2778L80 90.8889L82 89L83 88L85 86L87 84L98 73L101 70L102 69L103 68L105 66.0833L106 65.2222L107 64.3889L109 62.7778L110 61.9167L112 60.0278L114 58.25L115 57.5L117 56.5L119 56.0833L120 56.0556L121 56.0833L123 56.5L124 56.9167L125 57.4167L126.972 58.6944L127.917 59.4167L129.528 61.0833L130.139 62.0278L131.139 64L131.528 65L131.889 67L131.889 68L131.583 70L131.278 71L130.889 72L129.694 74L128.889 75L127.972 76L127 77L126 78L124 80L111 93L108 96L107 97L105 98.9722L104 99.9167L102 101.611L101 102.389L99 104.083L98 105.028L96 107L95 108L93 110L92 111L90.0278 113L88.25 115L87.5 116L86.5 118L86.0833 120L86.0278 122L86.0833 123L86.5 125L87.5 127L88.25 128L89.0833 129L91 131L92 132L94 133.972L95 134.889L97 136.278L98.9444 136.889L100.5 137L102 137L103 136L103 134.5L102.889 132.944L102.667 132L102.278 131L100.889 129L99 127L98 126L96.1389 124L95.4444 123L95.0556 122L95.0556 121L95.4444 120L97.0278 118L99 116L101 114.028L102 113.083L104 111.389L106 109.778L107 108.917L109 107L111 105L115 101L127 89L130 86L132 84L133 83L134.917 81L136.528 79L137.722 77L138.167 76L138.611 75L139.306 73L139.583 72L139.917 70L139.972 69L140 67L139.917 65L139.583 63L138.972 61L138.583 60L137.583 58L136.972 57L136.306 56.0278L135.583 55.0833L133.917 53.4167L132 52.0278L130 50.8333L129 50.2778L127 49.4444L125 48.8611L123 48.3889L121 48.0833L120.056 48.0278L119.056 48L117 48L117 44.9444L117 44L117 43L116.917 41L116.75 40L116.528 39L116.139 38L115.722 37L114.528 35L113.75 34L111.972 32.0278L111 31.0833L109 29.5L107 28.4167L106 28.0278L104 27.4167L102 27.0833L100 27L99.0556 27L98.0556 27L96 27L96 23.9444L96 23L96 22L95.9167 20L95.5833 18L94.9722 16L94.6111 15L93.7222 13L92.5278 11L91.75 10L89.9722 8.08333L89 7.25L88 6.47223L86 5.27777L85 4.86111L84 4.44444L82 3.86111L81 3.63889L80 3.38889L78 3.08333L76 3.11111L74 3.72223L72 5.11111L71 6.02777L69 8L67 10L62 15L36 41L27 50L24 53L23 54L21.1111 56L20.3333 57L19.75 58L19.4444 59.9722L19.75 60.8889L21.1111 62.2778L22.0278 62.6667L23 62.8611L24 62.8611L26 62.2778L28 60.8889L29 59.9722L31 58L33 56L38 51L49 40z"/>
<path style="fill:#030303; stroke:none;" d="M62 26L62 28L63.5 29.4167L64.0556 29.8333L65.0556 30.6389L67 31.9722L69 33.0833L70 33.5L71 33.75L72 33.9167L74 34L75 34L76 34L78 33.9167L79 33.75L80 33.5L82 32.5L83 31.75L83.9722 30.9167L84.9167 29.9722L86.5 28L87.5 26L87.75 25L87.9722 23L87.9722 21L87.75 19L87.0556 17L86.5 16L84.9167 14.0833L83 12.5L81 11.5L79 11.1944L77 11.7222L76 12.3333L74 14.0278L73 15L71 17L70 18L68 20L62 26M58 34L57.9167 35.5L57.5833 37.0556L57.3056 38L56.6944 40L56.3889 41L55.8611 43L55.6111 44L55 46L54.3333 48L54 49L53.3889 51L53.1389 52L52.6111 54L52.3056 55L52 56L51.3333 58L51 59L50.4167 61L50.2222 61.9444L50.0278 63.5L50 65L51.5 64.2222L52.0556 63.6944L53.0556 62.8889L54 61.9722L55 61L56 60L58 58L65 51L68 48L69 47L69.9722 46L71.6667 44.0556L72.6389 42.5L73 41L71.5 40.9167L69.9444 40.5833L68 39.9167L66 38.9167L65 38.2778L64 37.5833L63 36.8056L61.0556 35.3056L60.0556 34.7222L59.5 34.3611L58 34z"/>
<path style="fill:#f3f3f3; stroke:none;" d="M123 64L121.5 64L119.944 64.1111L118.028 64.6389L117.083 65.1111L115.389 66.3333L114.611 67L113.778 67.6944L111.972 69.2222L111 70.0833L109 72L108 73L106 75L102 79L93 88L90 91L89 92L87 94L85 95.9167L83 97.5278L82 98.1389L81 98.7222L79 99.5278L78 99.75L77 99.9167L75 99.9167L73 99.5278L72 99.1389L70 98.1389L69.0278 97.5278L67.25 95.9167L66.5 94.9722L65.4167 93L65.0278 92L64.7222 91L64.5 90L64.5 88L65.0278 86L65.4167 85L66.5 83L67.25 82L68.0833 81L70 79L72 77L75 74L86 63L90 59L92 57L94 55L96 53.0833L97 52.2222L98.9167 50.6111L100.5 48.9167L101.056 47.9722L101.639 46L101.583 45.0278L101.25 44.1111L100.667 43.3333L99.8889 42.7222L98 42.1944L96 42.5L94 43.5L93 44.25L91 46.0278L89 48L87 50L82 55L67 70L64 73L63 74L61.0833 76L59.4722 78L58.2778 80L57.8333 81L57.3889 82L56.6944 84L56.4167 85L56.0833 87L56.0278 89L56.0833 90L56.4167 92L57 94L57.3333 95L58.0833 97L58.5556 98L59.0833 99L60.4167 100.972L61.2222 101.917L63.0278 103.583L65 104.972L66 105.583L68 106.583L69 106.972L71 107.583L73 107.917L75 108L76 108L78 107.972L79 107.917L81 107.583L83 106.972L84 106.583L86 105.583L87 104.972L89 103.583L91 101.917L93 100L94 99L96 97L110 83L112 81L113 80L115 78.0278L116 77.0833L118 75.3889L119 74.6111L120.917 72.9167L122.5 71L123.056 70L123.667 68L123.694 67.0556L123.556 66.0556L123 64M283 42L282 43L282 48L283 49L288 49L288.556 46.9444L288.667 45.9444L288.25 44.1111L286.889 42.7222L286.028 42.3333L284.5 42.0278L283 42M163 43L163 88L168 88L168 71L179 71L179.528 72.5L179.889 73.0556L180.417 74.0556L181.611 76L182.167 77L182.75 78L183.778 80L184.222 81L185.222 83L185.778 84L186.194 84.9444L186.778 85.9444L187 86.5L188 88L195 88L194.472 86.5L194.111 85.9444L193.583 84.9444L192.389 83L191.833 82L191.25 81L190.222 79L189.778 78L189.222 77L188.75 76L188.167 75L187.611 74L186.389 72.0556L186.056 71.5L185 70L186.5 69.4722L187.056 69.0833L188.056 68.5L189.889 66.9167L191.361 65L192.278 63L192.583 62L192.917 60L193 58L193 56L192.917 54L192.528 52L192.139 51L191.722 50L190.528 48.0833L188.917 46.4722L187.972 45.8611L187 45.2778L185 44.4444L184 44.1667L182 43.6389L181 43.3889L179 43.0833L177 43L176 43L175 43L173 43L163 43M295 43L294 44L294 88L300 88L300 44L299 43L295 43M321 43L321 88L327 88L327 57L328 58.5L328.222 59.0556L328.806 60.0556L329.75 62L330.167 63L330.611 64L331.389 66L332.194 68L332.611 69L333.389 71L333.806 72L334.611 74L335.389 76L335.806 77L336.611 79L337.389 81L338.25 83L338.75 84L339.139 84.9444L339.722 86.5L340 88L346 88L346.806 86.5L347 85.9444L347.833 84L348.25 83L348.75 82L349.611 80L350.389 78L351.194 76L351.611 75L352.389 73L352.806 72L353.611 70L354.389 68L355.25 66L355.75 65L356.611 63L357.389 61L357.806 60L358.528 58.0556L358.722 57.5L359 56L359.722 57.5L359.75 58.0556L359.944 59.0556L359.972 60L360 62L360 64L360 68L360 88L366 88L366 43L359 43L358.028 44.5L357.833 45.0556L357.361 46.0556L356.611 48L356.194 49L355.389 51L354.611 53L353.806 55L353.389 56L352.611 58L352.194 59L351.389 61L350.611 63L349.75 65L349.25 66L348.389 68L347.611 70L346.806 72L346.389 73L345.611 75L344.778 76.9444L344.222 77.9444L344 78.5L343 80L342.556 78.5L342.333 77.9444L341.611 76L341.194 75L340.389 73L339.611 71L338.75 69L338.25 68L337.389 66L336.611 64L335.806 62L335.389 61L334.611 59L334.194 58L333.389 56L332.611 54L331.75 52L331.25 51L330.389 49L329.611 47L329.194 46.0556L328.806 45.0556L328.5 44.5L328 43L321 43M430 43L430 59L428.75 58.25L428.333 57.7778L426.778 56.4444L424.972 55.2778L423 54.4722L422 54.25L421 54.0833L419 54.0278L417 54.2222L416 54.4167L414 55.0833L413 55.5556L412.028 56.0833L410.222 57.4167L408.694 59.0833L408.028 60.0278L407.417 61L406.417 63L406.028 64L405.417 66L405.083 68L405 70L405 71L405 72L405.028 74L405.083 75L405.417 77L406.028 79L406.833 81L407.278 82L407.861 83L408.472 83.9722L410.083 85.75L411.028 86.5278L413 87.7222L415 88.5278L416 88.75L418 88.9722L419 89L421 88.9722L423 88.75L424 88.5L426 87.5L426.944 86.8056L428.5 85.4722L430 84L430 88L435 88L435 43L430 43M474 43L474 88L480 88L480 44L479 43L474 43M537 74L532 74L531.167 75.5L530.917 76.0556L529.694 78L527.972 79.9167L526 81.5L524 82.5833L522 83.3056L521 83.5833L519 83.8333L517 83.5278L515 82.75L514 82.2222L512.028 81.1389L511.083 80.5278L509.417 78.9167L508.694 77.9722L507.417 76L506.417 74L505.694 72L505.417 71L505.083 69L505.028 68L505 66L505 65L505.083 63L505.417 61L505.694 60L506.389 58L506.833 57L507.861 55L508.472 54.0278L510.083 52.2222L511.028 51.4167L513 50.0278L514 49.4167L516 48.5L518 48.1111L520 48.2222L521 48.4167L522 48.6944L523 49.0278L524 49.4167L526 50.5L527 51.25L527.972 52.0833L529.694 54L530.917 55.9444L531.167 56.5L532 58L537 58L536.917 55.9444L536.528 54L535.722 52L535.139 51L534.528 50L532.917 48.0833L531.972 47.2222L530 45.7222L529 45.0833L527 44.0833L526 43.7222L525 43.4167L524 43.2222L523 43.0833L521 43L520 43L519 43L517 43.0278L516 43.0833L514 43.4167L512 44.0278L511 44.4167L509 45.4167L508.028 46.0278L507.083 46.6944L505.417 48.2222L504.694 49.0833L503.389 51L502.833 52L501.778 54L501.25 55L500.472 57L500.25 58L500.056 59L499.778 61L499.389 63L499.083 65L499.028 67L499.083 68L499.389 70L499.639 71L500.139 73L500.389 74L500.694 75L501.389 77L501.833 78L502.278 79L503.472 81L505.083 82.9722L507 84.7778L509 86.2778L511 87.3889L512 87.7778L514 88.3611L515 88.6111L517 88.9167L519 89L521 88.9722L523 88.7778L524 88.5833L525 88.3056L527 87.6111L528 87.1667L530 86.1389L531 85.5278L532.917 83.9167L534.528 82L535.139 81L535.722 80L536.528 78L536.917 76.0556L537 74M726 43L725 44L725 45.5L725 47.0556L725 49L725 88L731 88L731 72L737 72L739 72L740 72L742 72L743 71.9722L744 71.9167L746 71.5833L748 70.9722L750 70.0833L750.972 69.5L752.75 67.9167L753.5 66.9722L754.583 65L755.306 63L755.583 62L755.917 60L755.972 59L756 58L755.972 56L755.917 55L755.528 53L755.139 52L754.139 50L753.528 49L751.917 47.0833L750 45.5L748 44.4722L746 43.8611L745 43.6389L744 43.3889L742 43.0833L741 43.0278L740 43L738 43L737 43L734 43L726 43M933 43L933 44.5L933 88L936.5 88L938 88L938 86.5L938 70L938 66L938 63L938 55L938 54L938 53L938 49L938 43L936.5 43L936 43L933 43M233 47L233 55L228 55L228 59L233 59L233 71L233 75L233 77L233.028 79L233.083 80L233.417 82L234.111 84L234.639 84.9722L236.111 86.6944L238 87.8889L240 88.5833L241.944 88.9167L242.944 88.9722L245 89L246 88L246 84L244.5 83.9167L242.944 83.5278L241.056 82.8056L240.5 82.5L239 82L239 59L246 59L246 55L239 55L239 47L233 47M612 47L612 55L607 55L607 59L612 59L612 75L612 78L612 80L612.111 82L612.333 83L612.722 84L613.333 84.9722L615.028 86.75L616 87.5L618 88.5L619 88.75L620 88.9167L621.944 88.9444L622.944 88.75L623.5 88.7222L625 88L625 85L624 84L622.5 83.9167L620.972 83.5L619.25 82.5L618.5 81.75L617.5 79.9722L617.083 78L617.028 77L617 76L617 74L617 72L617 69L617 59L624 59L624 55L617 55L617 47L612 47M693 47L693 55L688 55L688 59L693 59L693 75L693 78L693.028 80L693.25 82L693.5 83L694.5 84.9722L696.083 86.6944L697.028 87.3611L699 88.2778L701 88.7778L702 88.8889L703.944 88.75L704.5 88.7222L706 88L706 85L705 84L703.5 83.8889L701.944 83.2778L700.111 81.8889L698.722 80L698.111 78L698 76L698 75L698 73L698 72L698 59L706 59L706 55L703.944 55L699 55L698 54L698 47L693 47M816 47L816 55L814 55L811 55L811 59L816 59L816 76L816 78L816 79L816.083 81L816.5 83L817.5 84.9722L819.083 86.6944L820.028 87.3611L821 87.8889L823 88.5833L824.944 88.9167L825.944 88.9722L828 89L829 88L829 84L827.5 83.9722L825.944 83.6667L825.028 83.2778L824.111 82.6667L822.722 80.9722L822.111 79L822.028 78L822 76L822 74L822 59L824.056 59L829 59L829 55L827.5 55L825.056 55L822 55L822 47L816 47z"/>
<path style="fill:#030303; stroke:none;" d="M168 49L168 66L173 66L175 66L176 66L178 65.9722L179 65.9167L181 65.5833L182 65.2778L183.972 64.3611L185.694 62.8889L186.361 61.9722L186.889 61L187.583 59L187.833 57L187.583 55L187.278 54L186.361 52.0833L185.694 51.25L183.972 49.9444L183 49.5L181 49.0833L179 49L178 49L177 49L175 49L168 49M731 49L731 67L737 67L739 67L740 67L742 66.9722L743 66.9167L745 66.5L745.972 66.0556L746.917 65.5L748.5 63.9167L749.056 62.9722L749.5 62L749.917 60L750 58L750 57L749.917 55L749.5 53.0278L748.5 51.25L746.917 49.9444L745 49.25L744 49.0833L742 49L741 49L740 49L738 49L735 49L731 49z"/>
<path style="fill:#f3f3f3; stroke:none;" d="M226 80L224.5 79.75L223 79.3889L222.056 79.2222L221.5 79.0833L220 79L219.222 80.4722L218.694 80.9722L216.972 82.5L215 83.5L214 83.75L212 83.9444L211 83.9167L209 83.5L207.028 82.5L205.25 80.9167L204.472 79.9722L203.278 78L202.472 76.0556L202.083 74.5L202 73L226 73L226 69.9444L226 69L226 68L225.917 66L225.75 65L225.528 64L225.139 63L224.139 61L223.528 60L221.917 58.0833L220.972 57.25L220 56.5L218 55.4167L216 54.6944L215 54.4167L213 54.0833L211 54.0278L210 54.0833L208 54.4167L207 54.7222L205 55.5556L203.028 56.7222L202.083 57.4167L200.472 59.0833L199.25 61L198.778 62L198.25 63L197.472 65L197.083 67L197 69L197 70L197 72L197 74L197.028 75L197.083 76L197.417 78L197.694 79L198.417 81L199.5 83L200.25 83.9722L202.028 85.75L203 86.5L205 87.5833L207 88.3056L208 88.5833L210 88.9167L211 88.9722L213 89L215 88.9167L217 88.5833L218 88.3056L220 87.5833L221.972 86.5L223.75 84.9167L225.056 83.0556L225.5 82.0556L225.722 81.5L226 80M250 62L251.5 62.8056L252 62.9722L253.5 63.5556L255 64L256.5 62.5278L258.056 61.1944L259 60.5L261 59.5L263 59.1111L264 59.1111L266 59.5L267.917 60.5L269.5 62.0833L270.5 63.9444L270.75 64.9444L271 67L270 68L267.944 68L266.944 68.0278L266 68.0833L264 68.3889L263 68.6111L261 68.9444L260 69.0556L258 69.4167L256 70.0278L255 70.3889L254.028 70.8333L252.222 71.8611L251.417 72.4722L250.111 74.0833L249.639 75.0278L249.306 76L249.111 77L249.028 78L249.083 80L249.472 82L250.278 83.9722L251.472 85.75L253.083 87.1389L254.028 87.7222L255 88.1389L256 88.5278L258 88.9167L260 89L261 89L263 88.9167L265 88.5278L267 87.7222L267.944 87.1944L269.5 86.2222L271 85L271.111 86.3889L271.722 87.3333L273.056 87.8889L274.5 88L276 88L276 69L276 66L276 65L275.917 63L275.5 61L275.056 60L273.75 58.0833L272.917 57.25L271.972 56.5L270 55.4722L269 55.1667L267 54.6389L266 54.3889L264 54.0833L262 54.0833L261 54.2222L260 54.4167L258 55.0278L257 55.3889L255 56.2778L253.083 57.4722L251.5 59.0278L250.528 60.5L250 62M382 54.4722L381 54.8611L379 55.8611L378 56.4722L376.083 58.0833L374.472 60L373.861 61L373.278 62L372.861 63L372.444 64L371.861 66L371.639 67L371.389 68L371.083 70L371.028 71L371.083 73L371.389 75L371.611 76L372 78L372.222 79L372.5 80L373.472 82L374.167 82.9722L374.861 83.9167L376.389 85.5833L378.083 86.9167L380 87.9167L382 88.5833L384 88.9167L385 88.9722L387 89L389 88.9167L390 88.7778L391 88.5833L393 87.9167L394.972 86.9167L396.778 85.5833L397.583 84.7778L398.306 83.9167L399.583 82L400.528 80L401.139 78L401.361 77L401.611 76L401.917 74L402 72L402 71L401.972 70L401.917 69L401.583 67L400.972 65L400.167 63L399.722 62L398.528 60L396.917 58.0833L395 56.5L393 55.4167L391 54.6944L390 54.4167L388 54.0833L387 54.0278L385 54.0278L384 54.0833L383 54.25L382 54.4722M469 80L467.5 79.75L467 79.6111L465.5 79.25L464 79L461.944 81.0278L460.944 81.9444L459 83.2778L457 83.8889L456 83.9722L454 83.8889L453 83.6944L452 83.3611L451 82.8889L449.083 81.5833L447.5 79.9167L446.917 78.9722L446.417 78L445.694 76.0556L445.417 75.0556L445.25 74.5L445 73L470 73L470 70.9444L469.972 69.9444L469.917 69L469.583 67L469 65L468.667 64L468.306 63L467.917 62L466.917 60.0278L466.278 59.0833L464.778 57.4722L462.972 56.2778L462 55.8333L460 55.0278L458 54.4167L456 54.0833L454 54.0278L453 54.0833L451 54.4722L450 54.8611L448 55.7778L446.028 56.8611L445.083 57.4722L443.472 59.0833L442.25 61L441.778 62L441.25 63L440.472 65L440.083 67L440 69L440 70L440 72L440 74L440.083 76L440.222 77L440.417 78L441.083 80L442.083 82L442.722 83L443.417 83.9722L445.083 85.75L446.028 86.5L448 87.5833L450 88.3056L451 88.5833L453 88.9167L455 89L457 88.9722L458 88.9167L460 88.5833L461 88.3056L463 87.5833L464.972 86.5L466.75 84.9167L468.056 83.0556L468.5 82.0556L468.722 81.5L469 80M552 54.4722L551 54.8611L549 55.8333L548.028 56.3889L546.222 57.6944L545.417 58.4167L544.028 60.0833L543.417 61.0278L542.417 63L542.028 64L541.417 66L541.083 68L541 70L541 71L541 72L541.028 74L541.083 75L541.417 77L541.694 78L542.389 80L542.833 81L543.278 82L544.472 83.9722L546.083 85.75L547.028 86.5L549 87.5833L551 88.3056L552 88.5833L554 88.9167L556 89L558 88.9722L559 88.9167L560 88.75L561 88.5278L562 88.1389L564 87.1389L565 86.5278L566.917 84.9167L568.528 83L569.139 82L569.722 81L570.139 80L570.556 79L571.139 77L571.361 76L571.611 75L571.917 73L571.944 72L571.917 71L571.611 69L571.361 68L570.861 66L570.611 65L569.972 63L569.583 62L568.5 60L566.917 58.0833L565 56.5L563 55.4167L561 54.6944L560 54.4167L558 54.0833L557 54.0278L555 54.0278L554 54.0833L553 54.25L552 54.4722M582 58L581.889 56.6111L581.278 55.6667L579.889 55.1111L579.028 55.0278L578.056 55L576 55L576 57.0556L576 88L582 88L582 72L582 70L582 69L582.083 67L582.5 65L582.944 64L584.25 62.0833L585.083 61.25L586.028 60.5L588 59.5L590 59.1667L592 59.5L593 59.9444L594.889 61.25L595.694 62.0833L596.889 64L597.278 65L597.583 66L597.917 68L598 70L598 71L598 73L598 88L603 88L603 71L603 68L603 67L603 66L602.917 64L602.778 63L602.583 62L601.889 60L601.361 59L599.889 57.1111L598 55.6389L597 55.1111L595 54.4167L594 54.2222L592 54.0278L590 54.0833L589 54.25L588 54.4722L587 54.8611L586 55.2778L585.056 55.8056L583.5 56.7778L582 58M656 80L654.5 79.75L654 79.6111L652.5 79.25L651 79L650.222 80.4722L649.694 80.9722L647.972 82.5L646 83.5L644 83.9167L643 83.9444L642 83.9167L640 83.5L638 82.5L636.083 80.9167L634.5 79L633.944 78L633.5 77L633.25 76.0556L633.028 74.5L633 73L644 73L649 73L657 73L657 70.9444L656.972 69L656.917 68L656.611 66L656.361 65L655.833 63L655.528 62L654.5 60L652.917 58.0833L651 56.5L649 55.4167L647 54.6944L646 54.4167L644 54.0833L642 54L640 54.0833L639 54.25L638 54.4722L637 54.8611L635 55.8611L634 56.4722L632.083 58.0833L630.472 60L629.278 62L628.444 64L628.167 65L627.639 67L627.389 68L627.083 70L627.028 72L627.083 73L627.389 75L627.639 76L628.139 78L628.389 79L629.111 81L630.306 83L632.028 84.9167L634 86.5278L635 87.1389L636 87.7222L637 88.1389L638 88.5278L640 88.9167L641 88.9722L643 89L644 89L646 88.9167L647 88.7778L648 88.5833L650 87.8889L651 87.3611L652 86.6944L653.889 84.9722L655.278 83.0556L655.889 81.5L656 80M766 59L766 55L761 55L761 88L763 88L766 88L766 74L766 71L766.028 69L766.25 67L766.5 66L767.5 64L769.083 62.0833L770.028 61.25L772 59.9722L773 59.5833L774 59.4722L774.944 59.4722L776.5 59.75L778 60L778 54L775.944 54L774 54.0833L773 54.25L772 54.5L770 55.5L769.056 56.1944L767.5 57.5278L766 59M790 54.4167L788 55.0278L786 55.9167L785 56.5L783.083 58.0833L781.5 60L780.417 62L779.694 64L779.417 65L779.083 67L779 69L779 70L779 72L779 74L779 75L779.083 77L779.472 79L780.278 81L780.861 82L781.472 83L783.083 84.9167L785 86.5278L786 87.1389L788 88.1389L789 88.5278L790 88.75L791 88.9167L793 89L794 89L796 88.9167L798 88.5833L800 87.9722L801 87.5833L802.972 86.5L804.75 84.9167L805.528 83.9722L806.75 82L807.222 81L808.139 79L808.528 78L808.75 77L808.917 76L809 74L809 72L809 70L808.972 69L808.917 68L808.583 66L807.972 64L807.583 63L806.583 61L805.972 60.0278L805.306 59.0833L803.778 57.4722L801.972 56.2778L801 55.8333L799 55.0278L797 54.4167L795 54.0833L793 54.0278L792 54.0833L790 54.4167M843 54.4167L841 55.0833L839 56.0833L838.028 56.7222L837.083 57.4167L835.417 59.0833L834.083 61L833.556 62L832.722 64L832.417 65L832.083 67L832 69L832 70L832 72L832 74L832.028 75L832.083 76L832.417 78L833.028 80L833.417 81L833.917 82L834.5 83L836.083 84.9167L838 86.5278L839 87.1389L841 88.1389L842 88.5278L843 88.75L844 88.9167L846 89L847 89L848 89L850 88.9167L851 88.75L852 88.5278L853 88.1389L854 87.7222L855.972 86.5278L857.778 84.9167L858.583 83.9722L859.917 82L860.917 80L861.583 78L861.917 76L862 74L862 73L862 71L862 69L861.972 68L861.917 67L861.528 65L860.75 63L860.222 62L859.139 60.0278L858.528 59.0833L856.917 57.4722L855 56.2778L854 55.8333L852 55.0278L850 54.4167L848 54.0833L847 54.0278L846 54.0278L845 54.0833L843 54.4167M894 78L889 78L887.528 80.0556L886.722 81.0278L884.972 82.6667L883 83.6667L882 83.8889L880 83.9167L878 83.5L876.028 82.5L874.25 80.9167L873.5 79.9722L872.417 78L872.028 77L871.417 75L871.083 73L871.028 72L871.083 70L871.222 69L871.722 67L872.111 66L873.306 64L874.111 63.0278L876 61.25L878 59.9444L879 59.5L881 59.1667L883 59.5L884.972 60.5L886.722 62.0278L887.528 62.9722L889 65L894 65L893.75 62.9444L893.5 61.9444L892.5 60L891.75 59.0278L890.917 58.0833L889 56.5L887 55.4167L885 54.6944L884 54.4167L882 54.0833L880 54.0278L878 54.2222L877 54.4167L875 55.0833L873 56.0833L872.028 56.7222L871.083 57.4167L869.417 59.0833L868.083 61L867.556 62L867.083 63L866.417 65L866.222 66L866.083 67L866 69L866 70L866 72L866 74L866.028 76L866.25 78L866.472 79L867.278 81L867.861 82L868.472 83L870.083 84.9167L872 86.5278L874 87.7222L876 88.5278L878 88.9167L880 89L882 88.9722L883 88.9167L885 88.5833L887 87.9167L888.972 86.9167L889.917 86.2778L891.528 84.7778L892.722 82.9722L893.528 81.0556L893.75 80.0556L893.917 79.5L894 78M909 54.4167L908 54.6944L906 55.4167L905 55.9167L904 56.5L902.083 58.0833L900.472 60L899.861 61L899.278 62L898.861 63L898.444 64L898.167 65L897.639 67L897.389 68L897.083 70L897.028 71L897.083 73L897.389 75L897.639 76L898.167 78L898.861 80L899.278 81L900.472 83L902.083 84.9722L904 86.6944L906 87.8889L907 88.2778L908 88.5833L910 88.9167L911 88.9722L913 89L915 88.9167L916 88.7778L917 88.5833L918 88.2778L920 87.4444L920.972 86.9167L922.778 85.5833L924.306 83.9167L924.972 82.9722L925.583 82L926.583 80L926.972 79L927.583 77L927.917 75L928 73L928 72L928 71L927.917 69L927.611 67L927.361 66L927.139 65L926.528 63L925.5 61L924.75 60L923.917 59.0278L922.972 58.0833L921 56.5L920 55.9167L918 55.0278L916 54.4167L914 54.0833L912 54.0278L911 54.0833L909 54.4167M283 55L283 88L288 88L288 55L283 55M659 55L659.333 56.5L659.639 57.0556L660.639 59L661.806 61L662.389 62L663.028 63L664.333 65L665.667 67L666.333 67.9722L666.944 68.8889L667.611 69.6944L667.944 70.2222L669 71L667.944 72.5L667.611 73.0556L666.944 74.0556L666.333 75L665.667 76L664.389 78L663.806 79L662.611 81L661.972 82L660.694 84L660.111 84.9444L659.639 85.9444L659.333 86.5L659 88L665 88L666 86.5L666.25 85.9444L666.861 84.9444L668.028 83L669.333 81L669.972 80L670.583 79.0556L671.111 78.0556L671.472 77.5L672 76L673.222 77.5L673.583 78.0556L674.806 80L675.389 81L676.611 83L677.194 84L678.472 85.8889L680.083 87.2778L682 87.8889L682.944 87.9722L683.944 88L686 88L685.472 86.5L685.111 85.9444L684.583 84.9444L683.333 83L682.667 82L681.389 80L680.194 78L679.611 77L678.333 75L677.722 74L677.222 73L676.944 71L677.722 69L678.333 68L679.667 66L680.333 65L681.611 63L682.194 62L683.389 60L684.583 58.0556L685.111 57.0556L685.472 56.5L686 55L680 55L678.944 56.5L678.611 57.0556L677.389 59L676.194 61L675.611 62L674.389 64L673.861 64.9444L673.25 65.9444L673 66.5L672 68L671.5 66.5L671.167 65.9444L670.722 64.9444L670.167 64L669.611 63L668.389 61L667.25 59L666.806 58.0556L666.222 57.0556L666 56.5L665 55L659 55z"/>
<path style="fill:#030303; stroke:none;" d="M202 69L221 69L220.917 67.5L220.528 65.9444L219.722 64L218.528 62.0833L216.917 60.5L215 59.5L213 59.0833L211 59.0833L209 59.4722L208 59.8611L206.083 60.8611L204.472 62.25L203.861 63.0833L203.278 64.0278L202.472 65.9444L202.083 67.5L202 69M383 59.5L381.083 60.5L379.472 62.0833L378.278 64L377.861 65L377.472 66L377.25 67L377.083 68L377 70L377 71L377 73L377.028 74L377.083 75L377.417 77L377.722 78L378.111 79L379.306 80.9167L381.028 82.5L383 83.5L384 83.75L385 83.9167L387 83.9722L389 83.75L390 83.5L391.972 82.5L392.917 81.75L393.75 80.9167L394.5 79.9722L395.5 78L395.778 77L396.194 75L396.583 73L396.694 72L396.694 71L396.361 69L395.833 67L395.556 66L394.722 64L393.528 62.0833L391.917 60.5L390 59.5L388 59.0833L386 59.0278L384 59.25L383 59.5M417 59.5L415.028 60.5L414.083 61.25L413.25 62.0833L412.5 63.0278L411.5 65L411.25 66L411.028 68L411 70L411 71L411 73L411.028 75L411.25 77L411.5 78L412.5 80L414.083 81.8889L416 83.2778L417 83.6667L418 83.8889L420 84L421 83.9722L423 83.6667L424 83.2778L425.917 81.8889L427.5 80L428.083 79L428.972 77L429.306 76L429.583 75L429.917 73L429.972 71L429.917 70L429.583 68L428.972 66L428.583 65L427.5 63.0278L426.75 62.0833L424.972 60.5L423 59.5L421 59.0833L420 59.0556L418 59.25L417 59.5M445 69L464 69L463.917 67.5L463.778 66.9444L463.583 65.9444L462.889 64L461.694 62.0833L459.972 60.5L459 59.9444L458 59.5L456 59.0833L454 59.0833L452 59.4722L451.028 59.8611L449.222 60.8611L448.417 61.4722L447.722 62.25L447.083 63.0833L446.083 65L445.722 65.9444L445.25 67.5L445 69M553 59.5L551.028 60.5L550.083 61.25L549.25 62.0833L548.5 63.0278L547.5 65L547.222 66L546.806 68L546.389 70L546.25 71L546.167 72L546.389 74L546.639 75L547.167 77L547.472 78L548.5 80L550.083 81.8889L552 83.2778L554 83.8889L556 84L557 83.9722L559 83.75L560 83.5L561.917 82.5L563.528 80.9167L564.722 79L565.528 77L565.75 76L565.917 75L566 73L566 72L566 71L565.917 69L565.583 67L565.278 66L564.917 65L563.917 63.0833L562.583 61.4722L561.778 60.8611L560.917 60.2778L559 59.4722L558 59.25L556 59.0556L554 59.25L553 59.5M633 69L651 69L650.972 66.9444L650.889 65.9444L650.694 65L649.889 63.0833L648.583 61.4722L646.917 60.2778L645 59.4722L643 59.0833L641 59.0833L639 59.5L638 59.9444L637.028 60.5L635.25 62.0833L634.5 63.0278L633.5 65L633.083 66.9444L633 69M791 59.4722L789.083 60.2778L787.417 61.4722L786.083 63.0833L785.083 65L784.722 66L784.417 67L784.083 69L784 71L784 72L784.083 74L784.417 76L784.694 77L785.417 79L786.5 80.9167L787.25 81.75L788.083 82.5L790 83.5L792 83.9167L794 84L795 83.9722L797 83.6667L798 83.2778L799.917 81.8889L801.5 80L802.583 78L802.972 77L803.583 75L803.778 74L803.917 73L803.972 71L803.917 70L803.583 68L803.306 67L802.583 65L801.5 63.0278L799.917 61.25L798 59.9444L797 59.5L796 59.25L794 59.0556L792 59.25L791 59.4722M844 59.5L842 60.5L841.028 61.25L840.111 62.0833L838.694 64L838.25 65L837.639 67L837.389 68L837.083 70L837 72L837.028 73L837.083 74L837.417 76L837.694 77L838.417 79L839.5 80.9167L841.083 82.5L843 83.5L845 83.9167L847 84L849 83.9167L850 83.75L850.972 83.5L852.778 82.5L854.278 80.9167L855.389 79L856.111 77L856.361 76L856.611 75L856.917 73L856.972 71L856.917 70L856.583 68L856.306 67L855.583 65L854.5 63.0278L852.917 61.25L851 59.9444L850 59.5L849 59.25L847 59.0556L845 59.25L844 59.5M910 59.4722L908.028 60.2778L906.25 61.4722L905.472 62.25L904.861 63.0833L904.278 64.0278L903.472 66L903.25 67L903.083 68L903 70L903 71L903 72L903.028 74L903.083 75L903.472 77L904.278 79L905.472 80.9167L907.083 82.5L909 83.5L911 83.9167L913 83.9722L915 83.75L916 83.5L917.972 82.5L918.917 81.75L919.75 80.9167L920.5 79.9722L921.5 78L921.778 77L922.194 75L922.583 73L922.694 72L922.694 71L922.583 70L922.389 69L922 67L921.5 65L920.5 63.0278L918.917 61.25L917.972 60.5L916 59.5L915 59.25L913 59.0556L911 59.25L910 59.4722M271 72L269.5 72.0833L268.944 72.2222L267 72.6111L266 72.8056L264 73.1944L262 73.6111L261 73.8056L259 74.2222L258.028 74.5L256.25 75.5L255.5 76.25L254.583 78.0278L254.583 80L255.5 81.8889L257.083 83.2778L258.028 83.6667L259 83.8889L261 84L263 83.9722L264 83.8889L265 83.6944L266.917 82.8889L268.528 81.5833L269.722 79.9167L270.139 78.9722L270.528 78L270.917 76L270.972 75.0556L271 74.0556L271 72z"/>
</svg>
