<?xml version="1.0" standalone="yes"?>
<svg xmlns="http://www.w3.org/2000/svg" width="2200" height="330">
<path style="fill:#020202; stroke:none;" d="M0 0L0 330L428 330L557 330L562 330L569 330L631 330L639 330L644 330L651 330L655 330L671 330L679 330L680 330L691 330L695 330L718 330L721 330L725 330L729 330L735 330L738 330L746 330L747 330L754 330L758 330L764 330L766 330L770 330L771 330L776 330L782 330L783 330L788 330L796 330L806 330L810 330L811 330L812 330L816 330L832 330L840 330L844 330L850 330L858 330L862 330L866 330L867 330L871 330L872 330L876 330L877 330L879 330L880 330L884 330L888 330L890 330L894 330L910 330L926 330L930 330L932 330L936 330L937 330L941 330L942 330L947 330L951 330L952 330L954 330L955 330L959 330L963 330L965 330L973 330L981 330L997 330L1001 330L1011 330L1019 330L1023 330L1025 330L1027 330L1028 330L1036 330L1037 330L1038 330L1040 330L1044 330L1045 330L1050 330L1052 330L1057 330L1059 330L1060 330L1061 330L1065 330L1066 330L1074 330L1082 330L1083 330L1084 330L1089 330L1091 330L1095 330L1096 330L1098 330L1102 330L1103 330L1107 330L1108 330L1109 330L1110 330L1115 330L1116 330L1117 330L1119 330L1120 330L1121 330L1123 330L1124 330L1129 330L1133 330L1134 330L1136 330L1138 330L1139 330L1141 330L1142 330L1145 330L1146 330L1147 330L1151 330L1153 330L1154 330L1156 330L1158 330L1162 330L1163 330L1167 330L1169 330L1172 330L1174 330L1177 330L1179 330L1180 330L1182 330L1183 330L1184 330L1188 330L1196 330L1197 330L1198 330L1199 330L1201 330L1202 330L1206 330L1210 330L1211 330L1212 330L1213 330L1217 330L1218 330L1219 330L1223 330L1224 330L1228 330L1233 330L1234 330L1238 330L1240 330L1242 330L1243 330L1244 330L1245 330L1247 330L1248 330L1252 330L1253 330L1255 330L1257 330L1265 330L1266 330L1272 330L1274 330L1290 330L1294 330L1295 330L1296 330L1300 330L1301 330L1305 330L1306 330L1314 330L1318 330L1319 330L1320 330L1321 330L1323 330L1325 330L1329 330L1333 330L1334 330L1338 330L1339 330L1347 330L1351 330L1355 330L1356 330L1360 330L1361 330L1365 330L1366 330L1368 330L1369 330L1373 330L1377 330L1378 330L1379 330L1380 330L1381 330L1382 330L1386 330L1387 330L1388 330L1390 330L1391 330L1407 330L1411 330L1412 330L1414 330L1416 330L1417 330L1418 330L1419 330L1421 330L1425 330L1428 330L1429 330L1433 330L1434 330L1437 330L1441 330L1442 330L1446 330L1447 330L1448 330L1456 330L1458 330L1460 330L1463 330L1465 330L1467 330L1483 330L1487 330L1488 330L1492 330L1496 330L1497 330L1498 330L1500 330L1502 330L1505 330L1513 330L1514 330L1518 330L1520 330L1523 330L1525 330L1527 330L1529 330L1532 330L1536 330L1538 330L1546 330L1550 330L1551 330L1555 330L1556 330L1557 330L1558 330L1559 330L1560 330L1562 330L1566 330L1567 330L1568 330L1571 330L1575 330L1580 330L1584 330L1588 330L1589 330L1590 330L1595 330L1596 330L1597 330L1598 330L1600 330L1602 330L1610 330L1611 330L1612 330L1620 330L1624 330L1625 330L1630 330L1631 330L1632 330L1633 330L1634 330L1638 330L1639 330L1641 330L1642 330L1644 330L1645 330L1646 330L1647 330L1651 330L1652 330L1653 330L1654 330L1656 330L1659 330L1663 330L1664 330L1665 330L1670 330L1672 330L1673 330L1675 330L1676 330L1677 330L1681 330L1684 330L1688 330L1696 330L1697 330L1701 330L1705 330L1706 330L1708 330L1710 330L1711 330L1715 330L1716 330L1720 330L1723 330L1725 330L1726 330L1727 330L1730 330L1733 330L1735 330L1738 330L1739 330L1743 330L1745 330L1748 330L1750 330L1752 330L1753 330L1761 330L1765 330L1766 330L1770 330L1771 330L1772 330L1776 330L1808 330L1824 330L1828 330L1829 330L1831 330L1835 330L1836 330L1840 330L1844 330L1846 330L1854 330L1857 330L1859 330L1860 330L1861 330L1865 330L1866 330L1870 330L1871 330L1872 330L1873 330L1874 330L1876 330L1878 330L1879 330L1883 330L1887 330L1888 330L1889 330L1893 330L1894 330L1895 330L1903 330L1905 330L1906 330L1908 330L1910 330L1913 330L1914 330L1915 330L1919 330L1923 330L1924 330L1928 330L1930 330L1932 330L1933 330L1934 330L1942 330L1946 330L1947 330L1949 330L1952 330L1960 330L1962 330L1963 330L1967 330L1968 330L1969 330L1977 330L1978 330L1982 330L1983 330L1991 330L1999 330L2003 330L2004 330L2008 330L2012 330L2013 330L2016 330L2018 330L2019 330L2023 330L2024 330L2026 330L2029 330L2031 330L2032 330L2040 330L2044 330L2048 330L2049 330L2050 330L2052 330L2053 330L2055 330L2056 330L2060 330L2061 330L2069 330L2070 330L2071 330L2072 330L2073 330L2077 330L2078 330L2082 330L2086 330L2088 330L2089 330L2093 330L2094 330L2098 330L2099 330L2103 330L2104 330L2106 330L2108 330L2113 330L2117 330L2118 330L2122 330L2123 330L2124 330L2128 330L2129 330L2133 330L2134 330L2135 330L2136 330L2140 330L2141 330L2145 330L2149 330L2153 330L2154 330L2156 330L2158 330L2162 330L2163 330L2164 330L2165 330L2166 330L2170 330L2171 330L2175 330L2178 330L2186 330L2187 330L2191 330L2192 330L2194 330L2196 330L2200 330L2200 320L2200 0L2196 0L2192 0L2191 0L2189 0L2188 0L2184 0L2183 0L2182 0L2181 0L2173 0L2172 0L2168 0L2167 0L2163 0L2162 0L2154 0L2152 0L2148 0L2147 0L2146 0L2143 0L2142 0L2140 0L2139 0L2138 0L2136 0L2135 0L2131 0L2128 0L2126 0L2124 0L2123 0L2122 0L2120 0L2118 0L2114 0L2112 0L2111 0L2109 0L2105 0L2103 0L2102 0L2100 0L2096 0L2095 0L2092 0L2084 0L2076 0L2075 0L2074 0L2072 0L2070 0L2069 0L2068 0L2067 0L2066 0L2065 0L2063 0L2062 0L2058 0L2057 0L2053 0L2052 0L2051 0L2050 0L2049 0L2048 0L2044 0L2042 0L2038 0L2037 0L2035 0L1971 0L1955 0L1951 0L1950 0L1948 0L1944 0L1943 0L1942 0L1934 0L1930 0L1926 0L1925 0L1924 0L1922 0L1918 0L1917 0L1916 0L1912 0L1911 0L1909 0L1907 0L1904 0L1902 0L1900 0L1896 0L1893 0L1885 0L1877 0L1873 0L1869 0L1865 0L1863 0L1859 0L1858 0L1854 0L1853 0L1849 0L1848 0L1840 0L1838 0L1830 0L1822 0L1818 0L1817 0L1813 0L1812 0L1810 0L1806 0L1804 0L1800 0L1798 0L1797 0L1793 0L1791 0L1790 0L1789 0L1787 0L1783 0L1781 0L1780 0L1778 0L1777 0L1775 0L1773 0L1765 0L1761 0L1760 0L1758 0L1754 0L1753 0L1752 0L1750 0L1748 0L1747 0L1746 0L1742 0L1741 0L1740 0L1724 0L1716 0L1714 0L1698 0L1666 0L1658 0L1650 0L1642 0L1634 0L1630 0L1626 0L1625 0L1621 0L1620 0L1619 0L1618 0L1614 0L1610 0L1606 0L1605 0L1604 0L1603 0L1601 0L1593 0L1589 0L1581 0L1577 0L1573 0L1572 0L1571 0L1563 0L1559 0L1557 0L1556 0L1554 0L1553 0L1549 0L1541 0L1540 0L1532 0L1524 0L1520 0L1519 0L1503 0L1501 0L1500 0L1492 0L1490 0L1487 0L1479 0L1463 0L1459 0L1458 0L1454 0L1453 0L1437 0L1433 0L1432 0L1428 0L1427 0L1423 0L1422 0L1418 0L1414 0L1413 0L1409 0L1401 0L1397 0L1396 0L1392 0L1391 0L1388 0L1386 0L1385 0L1381 0L1373 0L1372 0L1371 0L1369 0L1367 0L1366 0L1364 0L1361 0L1360 0L1356 0L1355 0L1347 0L1345 0L1344 0L1342 0L1340 0L1339 0L1338 0L1334 0L1333 0L1329 0L1327 0L1325 0L1322 0L1318 0L1317 0L1316 0L1314 0L1312 0L1311 0L1310 0L1306 0L1305 0L1297 0L1296 0L1294 0L1292 0L1288 0L1287 0L1285 0L1281 0L1280 0L1279 0L1277 0L1273 0L1272 0L1271 0L1267 0L1265 0L1261 0L1257 0L1256 0L1255 0L1250 0L1245 0L1244 0L1243 0L1239 0L1233 0L1232 0L1228 0L1224 0L1222 0L1220 0L1219 0L1218 0L1210 0L1206 0L1205 0L1201 0L1197 0L1195 0L1194 0L1192 0L1191 0L1189 0L1187 0L1183 0L1179 0L1178 0L1174 0L1173 0L1171 0L1165 0L1164 0L1163 0L1159 0L1156 0L1154 0L1146 0L1138 0L1130 0L1128 0L1124 0L1123 0L1117 0L1116 0L1110 0L1105 0L1103 0L1102 0L1098 0L1094 0L1093 0L1091 0L1083 0L1082 0L1080 0L1072 0L1071 0L1069 0L1067 0L1062 0L1056 0L1055 0L1053 0L1049 0L1047 0L1045 0L1044 0L1043 0L1042 0L1037 0L1029 0L1027 0L1026 0L1024 0L1021 0L1017 0L1013 0L1007 0L1003 0L1000 0L997 0L993 0L992 0L988 0L987 0L986 0L984 0L968 0L964 0L948 0L944 0L943 0L935 0L934 0L930 0L928 0L927 0L925 0L922 0L920 0L918 0L915 0L913 0L912 0L880 0L875 0L869 0L866 0L862 0L858 0L850 0L845 0L841 0L839 0L831 0L821 0L819 0L817 0L813 0L807 0L802 0L797 0L795 0L790 0L782 0L774 0L758 0L753 0L745 0L739 0L738 0L727 0L718 0L708 0L705 0L701 0L693 0L691 0L689 0L686 0L683 0L676 0L666 0L644 0L642 0L637 0L632 0L627 0L626 0L621 0L615 0L614 0L606 0L604 0L600 0L580 0L579 0L551 0L522 0L501 0L334 0L0 0z"/>
<path style="fill:#f6f6f6; stroke:none;" d="M76 93L75.9167 94.5L75.7778 95.0556L75.5833 96.0556L75 98L74.6667 99L74.3333 100L73.3333 103L73 104L72.6944 105L72.3889 106L71.8611 108L71.6389 109L71.3611 110L71.1389 111L70.5556 113L69.8333 115L69.4444 116L69.1667 117L68.8611 118L68.6389 119L68.3611 120L68.1389 121L67.6111 123L67.3056 124L67 125L66.3333 127L66 128L65.6944 129L65.3889 130L64.8611 132L64.6111 133L64.3056 134L63.6944 136L63.3889 137L62.8611 139L62.6111 140L62 142L61.6667 143L60.6667 146L60.3333 147L59.6944 149L59.3889 150L58.8611 152L58.6389 153L58.3611 154L58.1111 155L57.4167 157L57 158L56.2778 160L55.8056 162L55.5833 163L55 165L54.3333 167L54 168L53.3889 170L52.8333 172L52.5556 173L51.8333 175L51.4444 176L51.1667 177L50.8611 178L50.3889 180L50.0833 182L50.0278 183L50.0833 185L50.4722 187L50.8611 187.972L51.8611 189.778L52.4722 190.583L53.25 191.306L55.0278 192.583L56 193.083L58 193.75L60 193.944L61 193.917L63 193.528L65 192.722L66 192.139L67 191.528L69 189.917L71 188L72 187L74 185L77 182L81 178L87 172L98 161L100 159L101 158L103 156.028L104 155.083L106 153.389L107 152.611L109 150.917L110 149.972L112 148L113 147L117 143L130 130L149 111L155 105L157 103L158 102L159 101.028L159.972 100.083L160.917 99.2222L161.778 98.4167L163.389 97L164.222 96.3056L166.028 94.7778L167 93.9167L169 92L170 91L172 89L174 87.0278L175 86.0833L177 84.4722L179 83.25L180 82.7778L182 81.7778L183 81.25L185 80.4444L186 80.1667L187 79.8611L189 79.3889L191 79.0833L193 79L195 79.0833L197 79.4167L198 79.6944L200 80.3333L202 81.0278L203 81.3889L204 81.8333L205 82.2778L206 82.8333L208 84.0278L210 85.4167L211 86.2222L212.917 88.0278L214.583 90L215.306 91L216.611 93L217.167 94L218.222 96L218.75 97L219.528 99L219.778 100L220 101L220.389 103L220.611 104L220.917 106L220.972 108L220.917 109L220.583 111L220.306 112L219.611 114L219.194 115L218.361 117L217.944 118L216.917 120L215.583 122L213.917 124L212.972 125L211 127L210 128L207 131L186 152L179 159L177 161L176 162L174 163.917L173.028 164.778L171.222 166.389L169.611 168L167.917 169.611L166.972 170.389L165 172.083L164 173.028L162 175L160 177L153 184L138 199L135 202L134 203L132.111 205L131.333 206L130.722 207L130.111 209L130.083 211L130.222 212L130.694 214L131.028 214.972L131.417 215.917L132.5 217.583L134.083 218.889L136 219.694L137 219.889L139 220L141 219.917L143 219.5L145 218.5L146 217.75L148 215.972L150 214L153 211L158 206L160 204L161 203L162.972 201.083L163.917 200.222L165.611 198.611L166.389 197.806L168 196.194L168.806 195.389L169.611 194.639L170.389 193.861L172.083 192.361L173.028 191.611L175 189.917L176 188.972L178 187L182 183L194 171L211 154L216 149L218 147L219 146L221 144.083L221.972 143.222L223.778 141.639L225.389 140.139L226.222 139.361L228.028 137.806L230 136.222L231 135.5L233 134.389L234 133.944L236 133.028L237 132.583L239 131.889L241 131.389L243 131.083L244 131.028L245 131L247 131.083L249 131.389L250 131.611L252 132L253 132.222L254 132.472L256 133.25L257 133.778L258 134.25L260 135.444L262 136.861L264 138.389L264.972 139.222L265.917 140.083L267.611 142L269.111 144L270.389 146L271.361 148L272.25 150L272.75 151L273.528 153L273.917 155L274 157L274 158L274 160L273.972 161L273.917 162L273.583 164L273 166L272.667 167L272.333 168L271.583 170L270.583 172L269.306 174L268.583 175L266.917 177L265.972 178L264 180L262 182L257 187L243 201L238 206L237 207L235 208.972L234 209.917L232.028 211.611L231.083 212.389L229.389 214L227.778 215.611L225.972 217.222L225 218.083L223 220L222 221L220 223L214 229L195 248L184 259L180 263L178 264.972L177 265.917L175.083 267.611L174.222 268.361L172.639 269.861L171.861 270.639L170.361 272.222L169.611 273.083L168.028 275L166.639 277L166.111 278L165.694 279L165 281L164.417 283L164.083 285L164.028 286L164 288L164.028 290L164.222 292L164.417 293L164.694 294L165.389 296L165.833 297L166.861 299L167.472 300L168.25 301L170.028 303L172 305L173 306L174 307L176 309L181 314L184 317L185 318L186 319L188 320.917L190 322.528L192 323.722L193 324.139L195 324.75L196 324.889L198 324.75L200 324.139L201 323.722L202.889 322.528L204.361 320.917L205.278 319L205.778 317L205.889 315L205.5 313L205.056 312L204.5 311L202.917 309L201.972 308L200 306L199 305L198 304L196 302L191 297L189 295L188 294L187 293L185.111 291L184.361 290L183.833 289L183.833 287L185.111 285L186.028 284L188 282L190 280L193 277L207 263L218 252L221 249L222 248L224 246.028L225 245.083L227 243.389L228 242.611L230 240.917L231 239.972L233 238L235 236L241 230L260 211L276 195L279 192L280 191L281 190L282.917 188L283.75 187L284.528 186L285.806 184L286.389 183L287 182L288.111 180L289 178L289.389 177L290.194 175L290.611 174L291.306 172L291.583 171L291.806 170L292.194 168L292.389 167L292.611 166L292.917 164L292.972 163L293 161L293 159L293 157L292.972 155L292.917 154L292.611 152L292.389 151L292 149L291.528 147L291.167 146L290.806 145L290 143L289.167 141L288.75 140L288.222 139L287.222 137L286.75 136L285.556 134L284.139 132L283.361 131L282.611 130L280.917 128L279 126.028L278 125.083L276 123.417L275 122.694L273 121.333L271 120.028L270 119.389L268 118.25L267 117.778L265 116.778L264 116.25L262 115.472L260 115L258 114.583L256 114L254 113.417L252 113.083L250 113L249 113L247 113L239 113L239 103L239 101L239 100L238.917 98L238.583 96L238.306 95L237.667 93L236.972 91L236.611 90L236.167 89L235.75 88L235.222 87L234.75 86L233.611 84L232.972 83L231.667 81L231 80L229.583 78L227.917 76L226 74.0278L225 73.0833L223 71.3889L222 70.6389L220 69.1667L219 68.4445L217 67.25L216 66.7778L214 65.7778L213 65.25L211 64.3889L210 64.0278L208 63.3333L206 62.6945L205 62.4167L203 62.0833L201 62L200 62L198 62L187 62L187.028 60.5L187.222 58.9445L187.611 57L187.917 55L187.972 54L188 52L188 50L188 48L187.972 47L187.917 46L187.611 44L187.361 43L187.139 42L186.861 41L186.389 39L186 37L185.528 35L184.75 33L184.222 32L183.222 30L182.75 29L181.611 27L180.972 26L179.583 24L177.917 22L176 20L175 19L174 18L172 16.0833L170 14.4167L169 13.6945L167 12.3889L166 11.8055L165 11.1945L163 10.0555L161 9.08334L160 8.69446L159 8.33334L157 7.66666L156 7.33334L154 6.66666L152 6L150 5.41666L149 5.19446L147 4.80554L145 4.38889L143 4.11111L142 4.11111L141 4.25L140 4.47223L138 5.27777L137 5.86111L136 6.47223L134 8.08334L132 10L130 12L126 16L106 36L36 106L18 124L15 127L13 129L12 130L10.0833 132L9.22222 133L7.72222 135L6.63889 137L6.30556 138L6.11111 139L6.08333 141L6.25 142L6.5 143L7.5 145L9.08333 146.889L11 148.278L13 148.889L15 149L16 148.972L17 148.889L19 148.361L20 147.889L22 146.583L23.9722 144.917L24.9167 143.972L25.7778 143.028L27.3889 141.222L29 139.611L29.8056 138.806L30.6111 138L32.1944 136.389L33 135.611L34.6111 134L35.3889 133.194L37 131.611L37.8056 130.806L39.3889 129.194L41.0556 127.611L41.9444 126.778L42.7778 125.944L43.6111 125.056L45.1944 123.389L46.8056 121.806L47.6111 121L49.1944 119.389L50 118.611L51.6111 117L53.1944 115.389L54 114.611L55.6111 113L56.3889 112.194L58 110.611L59.6111 109L60.3889 108.194L62.0556 106.611L62.9444 105.778L63.7778 104.944L64.6111 104.056L66.1944 102.389L67 101.611L68.6111 100L69.3889 99.1944L71 97.6111L71.8056 96.7778L73.3333 95.0833L74.1667 94.3056L74.5833 93.7778L76 93z"/>
<path style="fill:#020202; stroke:none;" d="M107 60L107.111 61.5L107.722 63.0555L108.333 64L109.111 65L111 67L113 68.9167L115 70.6111L117 72.1945L118 73L120 74.5278L122 75.7222L123 76.1667L124 76.6111L126 77.3889L128 78.1667L129 78.5556L131 79.1389L132 79.3611L133 79.6111L135 79.9167L137 80L138 80L140 80L141 79.9722L142 79.9167L144 79.6111L145 79.3889L147 79L148 78.7778L149 78.5278L151 77.75L152 77.2222L153 76.75L155 75.5556L156 74.8333L158 73.3611L159 72.6111L160.972 70.9167L162.778 69L164.306 67L164.972 66L165.611 65L166.722 63L167.611 61L167.972 60L168.583 58L168.806 57L169.194 55L169.611 53L169.917 51L169.944 50L169.917 49L169.611 47L169.389 46L168.972 44L168.722 43L168.389 42L167.528 40L167.056 39L166.611 38L165.5 36L164.75 35L163.917 34L162 32L160 30.0278L159 29.0833L157 27.4722L156 26.8611L155 26.2778L153 25.3889L152 25.0278L150 24.3333L148 23.6945L147 23.4445L145 23.4167L143 24.3333L142 25.1111L140 27L138 29L136 31L134.083 33L133.222 34L131.611 35.9167L130.806 36.7778L129.194 38.3611L128.389 39.1389L126.778 40.6389L125.056 42.2222L124.222 43.0555L123.389 43.9445L121.806 45.6111L121 46.3889L119.389 48L118.611 48.8055L117.778 49.6111L116.056 51.2222L114.389 52.9445L113.639 53.7778L112.139 55.3889L111.361 56.1945L110.611 57L109.833 57.75L108.972 58.5278L107 60M99 79L98.9167 80.5L98.5833 82.0556L98.3056 83L97.6944 85L97.3889 86L97.1389 87L96.6111 89L96 91L95.3333 93L94.3333 96L94 97L93.6944 98L93.3889 99L92.8611 101L92.6389 102L92.3611 103L92.1389 104L91.8333 105L91.5556 106L91.1667 107L90.8056 108L90.3889 109L89.6944 111L89.4167 112L89.1944 113L88.8056 115L88.5833 116L88.3056 117L87.6111 119L87.1944 120L86.8333 121L86.4444 122L85.8611 124L85.6111 125L85.3056 126L84.6944 128L84.3889 129L84.1389 130L83.6111 132L83.3056 133L82.6944 135L82.3889 136L82.1389 137L81.6111 139L81.3056 140L81 141L80.3333 143L80 144L79.3889 146L78.8333 148L78.5556 149L78.1667 150L77.4722 151.944L77.0833 153.5L77 155L78.5 154.222L79.0556 153.694L80.0556 152.889L81 151.972L82 151L83 150L85 148L95 138L102 131L104 129L106 127.028L107 126.083L109 124.389L110 123.611L112 121.917L113 120.972L115 119L117 117L120 114L126 108L128 106L129 105L131 103L131.972 102L132.889 101L133.667 100.056L134.639 98.5L135 97L133.5 96.75L131.944 96.3611L131 96.1389L130 95.8611L129 95.6111L128 95.3056L127 95L125 94.3333L123 93.6667L121 92.9722L120 92.5833L118 91.5833L116 90.3889L115 89.8056L114 89.1944L112 88.0556L110 86.9722L109 86.3889L107 84.8889L106 83.9722L104 82.0278L103 81.1111L102.056 80.3333L100.5 79.3611L99 79z"/>
<path style="fill:#f6f6f6; stroke:none;" d="M190 97.6389L188 98.7222L186 100.222L185 101.083L183 103L182 104L180 106L177 109L175 111L174 111.972L173.028 112.917L172.083 113.778L170.389 115.361L169.611 116.139L168.806 116.861L167.194 118.389L165.611 120L163.917 121.611L162.972 122.389L161 124.083L159 126L158 127L157 128L155 130L146 139L128 157L122 163L120 165L119 166L117.028 167.917L116.083 168.778L115.222 169.611L114.389 170.361L113.611 171.139L112 172.639L111.194 173.361L110.389 174.139L108.806 175.639L108 176.389L106.389 178.083L105.611 179.028L104 181L102.417 183L101.694 184L100.389 186L99.8333 187L99.25 188L98.7778 189L98.25 190L97.3889 192L97.0278 193L96.6667 194L96 196L95.6944 197L95.1389 199L94.8611 200L94.6389 201L94.3889 202L94.0833 204L94.0278 205L94 206L94 208L94 210L94 211L94.0833 213L94.3889 215L94.6111 216L94.7778 217L94.9444 218L95.0556 219L95.4167 221L96 223L96.3333 224L97.0278 226L97.3889 227L98.25 229L98.7778 230L99.25 231L99.8333 232L100.389 233L101.694 235L102.417 236L104 238L105.611 239.972L107.222 241.778L109.028 243.389L111 245L113 246.583L114 247.306L116 248.611L118 249.75L119 250.222L120 250.778L121 251.222L122 251.75L124 252.556L125 252.833L126 253.139L128 253.611L130 254L132 254.389L133 254.611L135 254.917L136 254.972L138 255L139 255L142 255L145 255L146 255L147 255L149 254.917L150 254.778L151 254.583L153 254L154 253.667L156 253L158 252.333L159 251.972L160 251.611L162 250.75L163 250.222L164 249.75L165 249.167L166 248.611L168 247.306L169 246.583L171 244.917L173 243.083L174 242.222L176 240.611L177 239.778L178 238.917L180 237L182 235L188 229L213 204L220 197L222 195L224 193.028L225 192.083L226.917 190.389L227.778 189.639L228.611 188.861L230.222 187.361L231.083 186.611L233 184.917L235 183L237 181L242 176L247 171L249 169L250.972 167L251.889 166L252.694 165L253.889 163L254.278 162L254.583 161L254.889 159L254.889 158L254.5 156L254.056 155L252.75 153.028L251.917 152.083L250 150.5L248 149.5L246 149.167L244 149.472L243 149.861L242 150.278L240 151.472L239 152.25L238 153.083L236.028 154.917L234.222 156.611L233.389 157.361L232.611 158.139L231.806 158.861L230.194 160.361L228.611 161.861L227.778 162.639L226.917 163.389L225 165.083L224 166.028L222 168L219 171L210 180L188 202L186 204L185 205L183.028 206.917L182.083 207.778L180.389 209.361L179.611 210.139L178 211.639L177.194 212.361L176.389 213.139L174.778 214.639L173.917 215.389L172 217.083L170 219L169 220L167 222L163 226L162 227L160 228.972L159 229.917L157 231.583L156 232.306L154 233.583L152 234.583L150 235.333L149 235.667L147 236.306L146 236.583L144 236.917L143 236.972L141 237L139 236.972L138 236.917L136 236.611L134 236.139L133 235.833L132 235.556L131 235.139L129 234.222L127 233.139L126 232.528L124 230.917L123 229.972L121 228L119.083 226L117.472 224L116.25 222L115.778 221L115.25 220L114.444 218L114.167 217L113.861 216L113.389 214L113.083 212L113.028 211L113 209L113 208L113.083 206L113.417 204L113.694 203L114.389 201L114.833 200L115.25 199L115.778 198L116.25 197L117.472 195L119.083 193L120.028 192L122 190L124 188L136 176L152 160L157 155L159 153L160 152L162 150.083L162.972 149.222L164.778 147.611L166.389 146L168.083 144.389L169.028 143.611L171 141.917L172 140.972L174 139L175 138L179 134L191 122L195 118L197 116L198.917 114L200.5 112L201.5 110L201.75 109L201.972 107L201.972 106L201.889 105L201.361 103.028L200.278 101.222L198.778 99.6944L196.972 98.4167L195 97.5L194 97.25L192 97.1389L190 97.6389M635 98.5L634 98.9444L632.083 100.25L630.5 102.028L629.944 103L629.5 104L629.111 106L629.111 107L629.5 109L630.5 111L632.083 112.889L634 114.278L636 114.889L638 115L639 114.972L641 114.75L641.972 114.5L643.778 113.5L645.278 111.917L645.889 110.972L646.361 110L646.889 108L646.944 107L646.917 106L646.528 104L646.139 103.028L645.139 101.25L644.528 100.472L643.75 99.8611L641.972 98.8611L641 98.4722L639 98.0833L637 98.0833L636 98.25L635 98.5M1237 174L1234.94 174L1233.94 174L1233 174L1232 174L1224 174L1223.39 176.056L1223.11 177.056L1222.39 179L1221.36 181L1220.17 183L1219.56 184L1218.14 185.972L1216.61 187.778L1215.78 188.611L1214.92 189.389L1213 191L1211 192.583L1210 193.278L1209 193.917L1207 194.917L1206 195.278L1205 195.583L1203 195.944L1202 196.056L1200 196.389L1199 196.611L1197 196.917L1195 197L1194 197L1192 197L1191 197L1189 196.917L1187 196.583L1186 196.306L1184 195.611L1183 195.167L1182 194.75L1181 194.222L1180 193.75L1178 192.611L1176 191.306L1175 190.583L1174 189.778L1172 187.972L1170.08 186L1169.22 185L1168.42 184L1167.69 183L1166.39 181L1165.25 179L1164.78 178L1164.25 177L1163.83 176L1163.39 175L1162.67 173L1162 171L1161.42 169L1161.08 167L1160.92 165L1160.78 164L1160.39 162L1160.22 161L1160.08 160L1160 158L1160 157L1160 156L1160 154L1160 152L1160 151L1160 150L1160.08 148L1160.39 146L1160.61 145L1160.78 144L1160.94 143L1161.06 142L1161.42 140L1162.03 138L1162.39 137L1163.25 135L1163.78 134L1164.22 133L1164.78 132L1165.25 131L1166.39 129L1167.03 128L1168.42 126L1170.08 124L1172 122L1173 121.028L1174 120.083L1176 118.472L1177 117.833L1178 117.194L1179 116.639L1181 115.556L1182 115.056L1184 114.194L1185 113.833L1186 113.472L1188 113.083L1190 113L1191 113L1192 113L1194 113L1196 113L1197 113L1198 113L1200 113.083L1202 113.417L1203 113.694L1205 114.389L1206 114.833L1207 115.25L1208 115.778L1209 116.25L1211 117.444L1213 118.861L1213.97 119.639L1214.92 120.389L1216.61 122.083L1217.39 123.028L1218.97 125L1220.39 127L1220.97 128L1221.5 129L1222.39 130.944L1222.89 132.5L1223 134L1224 135L1226.06 135L1227.06 135L1234.94 135L1237 135L1236.97 133.5L1236.75 131.944L1236.53 131L1235.83 129L1235.44 128L1234.83 126L1234.56 125L1233.75 123L1232.75 121L1232.17 120L1230.97 118L1229.58 116L1227.92 114L1226 112L1225 111.028L1224 110.083L1222 108.417L1220 107.028L1219 106.389L1217 105.25L1216 104.778L1215 104.25L1214 103.833L1212 103L1210 102.194L1209 101.833L1208 101.472L1206 101.056L1204 100.778L1203 100.611L1202 100.389L1200 100.083L1198 100L1197 100L1196 100L1194 100L1192 100L1191 100L1189 100.028L1188 100.083L1186 100.389L1185 100.611L1184 100.806L1182 101.194L1181 101.417L1180 101.694L1178 102.333L1176 103.083L1174 104.056L1173 104.639L1171 105.75L1170 106.25L1168 107.444L1167 108.167L1165 109.639L1164 110.389L1162.03 112.083L1161.08 113.028L1159.39 115L1158.64 116L1157.17 118L1156.44 119L1155.83 120L1154.61 122L1154 123L1152.89 125L1152 127L1151.61 128L1150.83 130L1150.44 131L1150.17 132L1149.61 134L1149.31 135L1148.69 137L1148.42 138L1148.08 140L1147.92 142L1147.78 143L1147.39 145L1147.22 146L1147.08 147L1147 149L1147 150L1147 151L1147 154L1147 160L1147 162L1147 163L1147.08 165L1147.39 167L1147.64 168L1147.86 169L1148.39 171L1149 173L1149.31 174L1149.81 176L1150.22 178L1150.47 179L1151.25 181L1151.78 182L1152.22 183L1152.78 184L1153.78 186L1154.25 187L1155.39 189L1156.03 190L1157.33 192L1158 193L1159.42 195L1161.08 196.972L1162.03 197.917L1164 199.611L1165 200.361L1167 201.833L1168 202.556L1170 203.75L1171 204.25L1173 205.361L1175 206.389L1177 207.111L1178 207.361L1179 207.639L1180 207.861L1182 208.389L1183 208.694L1184 209L1186 209.583L1187 209.778L1188 209.917L1190 210L1191 210L1192 210L1194 210L1195 210L1197 210L1198 210L1200 209.972L1201 209.917L1203 209.583L1205 209L1206 208.694L1207 208.389L1209 207.861L1210 207.611L1212 206.972L1213 206.611L1215 205.722L1217 204.611L1218 203.972L1220 202.667L1222 201.306L1223 200.583L1225 198.917L1226 197.972L1227.92 196L1229.53 194L1230.17 193L1231.39 191L1232.61 189L1233.72 187L1234.56 185L1234.83 184L1235.39 182L1235.69 181L1236.31 179L1236.58 178L1236.78 177.056L1236.97 175.5L1237 174M347 101L347 208L360 208L360 167L386 167L386.5 168.5L386.833 169.056L387.25 170.056L387.778 171L388.778 173L389.222 174L390.25 176L390.833 177L391.389 178L392.611 180L393.167 181L393.75 182L394.222 183L395.222 185L395.778 186L396.222 187L397.25 189L397.833 190L398.389 191L399.611 193L400.75 195L401.222 196L402.222 198L402.778 199L403.778 201L404.25 202L405.361 204L405.917 204.944L406.361 205.944L406.667 206.5L407 208L423 208L422.722 206.5L422.139 204.944L421.75 204L421.222 203L420.75 202L420.167 201L419.611 200L418.389 198L417.25 196L416.778 195L416.222 194L415.778 193L414.75 191L413.611 189L412.389 187L411.833 186L411.25 185L410.778 184L410.222 183L409.778 182L408.75 180L408.167 179L407.611 178L406.389 176L405.833 175L405.25 174L404.778 173L404.222 172L403.778 171L402.75 169L402.167 168L401.056 166.056L400.694 165.5L400 164L401.5 163.722L403.056 163.139L404 162.722L405 162.167L407 160.972L409 159.583L410.972 157.917L411.917 156.972L413.583 155L414.917 153L415.944 151L416.361 150L417.167 148L417.556 147L418.139 145L418.361 144L418.611 143L418.917 141L419 139L419 138L419 137L419 134L419 131L419 130L418.972 128L418.917 127L418.583 125L418 123L417.667 122L416.972 120L416.611 119L416.167 118L415.722 117L414.556 115L413.833 114.028L413.139 113.083L411.611 111.389L410.778 110.611L409.917 109.806L408 108.194L407 107.417L405 106.083L404 105.528L402 104.5L400 103.583L398 102.889L397 102.639L396 102.389L394 102.083L392 101.917L390 101.611L389 101.389L387 101.083L386 101.028L385 101L383 101L377 101L347 101M660 101L659 102L659 103.5L659 208L673 208L673 201L673 186L673 175L673 102L672 101L668 101L667 101L660 101M724 101L724 112L724 208L732.944 208L736 208L736 201L736 128L737.167 129.5L737.417 130.056L737.944 131.056L738.667 133L739.389 135L740.25 137L740.75 138L741.611 140L742.389 142L743.194 144L743.611 145L744.389 147L744.806 148L745.611 150L746.389 152L747.25 154L747.75 155L748.611 157L749.389 159L750.194 161L750.611 162L751.389 164L752.194 166L752.611 167L753.389 169L754.194 171L754.611 172L755.389 174L755.806 175L756.611 177L757.389 179L758.25 181L758.75 182L759.611 184L760.389 186L760.806 187L761.194 188L762.056 190L762.528 191L763.417 193L764.139 195L764.444 196L765.25 198L765.75 199L766.611 201L766.972 202L767.667 204L768.333 205.944L768.556 206.5L769 208L774 208L782 208L782.972 206.5L783.167 205.944L783.639 204.944L784.389 203L784.806 202L785.611 200L786.389 198L787.25 196L787.75 195L788.611 193L789.389 191L789.806 190L790.611 188L791.389 186L792.25 184L792.75 183L793.611 181L794.389 179L794.806 178L795.611 176L796.389 174L797.25 172L797.75 171L798.611 169L799.389 167L800.194 165L800.611 164L801.389 162L801.806 161L802.611 159L803.389 157L804.25 155L804.75 154L805.611 152L806.389 150L807.194 148L807.611 147L808.389 145L809.194 143L809.611 142L810.389 140L811.25 138L811.75 137L812.611 135L812.972 134L813.667 132L814.333 130.056L814.556 129.5L815 128L815.722 129.5L815.75 130.056L815.944 131.056L815.972 132L816 134L816 136L816 139L816 154L816 157L816 208L821 208L829 208L829 101L813 101L812 102.5L811.222 104.056L810.389 106L809.667 108L808.972 110L808.611 111L807.75 113L807.25 114L806.389 116L805.611 118L804.806 120L804.389 121L803.611 123L803.194 124L802.389 126L801.611 128L800.75 130L800.25 131L799.389 133L798.611 135L797.806 137L797.389 138L796.611 140L795.75 142L795.25 143L794.389 145L794.028 146L793.667 147L793.333 148L792.611 150L792.194 151L791.389 153L790.611 155L789.75 157L789.25 158L788.389 160L787.611 162L786.806 164L786.389 165L785.611 167L785.194 168L784.389 170L783.611 172L782.75 174L782.25 175L781.389 177L781.028 178L780.333 180L779.972 181L779.611 182L778.75 184L778.25 185L777.861 185.944L777.278 187.5L777 189L775 189L774.75 187.5L774.583 186.944L774.306 185.944L773.611 184L772.75 182L772.25 181L771.389 179L770.611 177L769.75 175L769.25 174L768.389 172L768.028 171L767.667 170L766.972 168L766.611 167L766.167 166L765.75 165L765.25 164L764.389 162L764.028 161L763.667 160L762.972 158L762.611 157L761.75 155L761.25 154L760.389 152L759.611 150L758.806 148L758.389 147L757.611 145L756.75 143L756.25 142L755.389 140L754.611 138L753.806 136L753.389 135L752.611 133L751.806 131L751.389 130L750.611 128L750.194 127L749.389 125L748.611 123L747.75 121L747.25 120L746.389 118L745.611 116L744.806 114L744.389 113L743.611 111L743.194 110L742.389 108L741.611 106L741.167 105L740.778 104.056L740.222 103.056L740 102.5L739 101L735 101L724 101M981 101L981 102.5L981 139L979.583 138.222L979.167 137.694L978.333 136.889L977.611 135.972L975.917 134.028L974 132.222L972 130.694L971 130.028L970 129.417L968 128.5L967 128.222L965 127.806L963 127.389L961 127.083L960 127.028L958 127L957 127L955 127L953 127.083L952 127.222L951 127.389L949 127.806L947 128.222L946 128.472L944 129.25L943 129.778L942 130.222L941 130.778L940 131.25L938 132.472L937 133.25L935 135.028L934 136L932.083 138L930.472 140L929.833 141L928.639 143L928.056 144L927.056 146L926.639 147L925.806 149L925.389 150L925.028 151L924.417 153L924.056 155L923.944 156L923.778 157L923.611 158L923.389 159L923.083 161L923.028 162L923 164L923 165L923 168L923 171L923 172L923 173L923.083 175L923.389 177L923.611 178L923.778 179L924.056 181L924.222 182L924.389 183L924.639 184L925.139 186L925.389 187L925.694 188L926.389 190L926.833 191L927.278 192L927.833 193L928.389 194L929.694 196L930.417 197L932 198.972L933.611 200.778L934.389 201.611L935.222 202.389L936.083 203.194L938 204.778L939 205.528L941 206.722L942 207.167L943 207.611L945 208.389L946 208.806L948 209.528L950 209.917L951 209.972L953 210L954 210L957 210L959 210L960 210L961 210L963 209.917L965 209.528L966 209.167L968 208.361L969 207.944L971 206.917L973 205.583L974.917 203.917L976.611 202L977.361 201L978.75 199.056L979.306 198.056L979.639 197.5L980 196L980.722 197.5L980.75 198.056L980.944 199.056L980.972 200L981 202L981 204L981 208L985 208L987 208L990 208L994 208L994 204L994 199L994 184L994 164L994 162L994 152L994 139L994 102L993 101L991.5 101L988 101L985 101L982.5 101L981 101M1087 101L1087 102.5L1087 104.056L1087 107L1087 111L1087 208L1091 208L1092 208L1100 208L1100 102L1099 101L1096.94 101L1095.94 101L1090.06 101L1087 101M1684 101L1684 102.5L1684 106L1684 112L1684 116L1684 117L1684 128L1684 129L1684 133L1684 154L1684 162L1684 168L1684 170L1684 171L1684 175L1684 208L1688 208L1689 208L1692 208L1693.94 208L1694.94 208L1697 208L1697 170L1699.06 170L1700.06 170L1702 170L1705 170L1706 170L1710 170L1711 170L1712 170L1715 170L1717 170L1721 170L1723 170L1724 169.972L1725 169.917L1727 169.611L1728 169.389L1730 169.056L1731 168.944L1733 168.528L1734 168.167L1736 167.389L1738 166.611L1740 165.722L1742 164.611L1743 163.972L1745 162.583L1747 160.917L1747.97 159.972L1749.75 158L1750.53 157L1751.75 155L1752.22 154L1752.78 153L1753.22 152L1753.75 151L1754.53 149L1754.78 148L1755 147L1755.42 145L1756 143L1756.58 141L1756.92 139L1756.97 138L1757 136L1757 135L1757 134L1756.92 132L1756.78 131L1756.61 130L1756.19 128L1755.81 126L1755.31 124L1754.61 122L1754.17 121L1753.75 120L1753.22 119L1752.22 117L1751.75 116L1750.53 114L1749.75 113L1748.92 112L1747 110.028L1745 108.25L1744 107.472L1743 106.861L1742 106.25L1741 105.778L1739 104.778L1738 104.25L1736 103.389L1734 102.694L1733 102.417L1732 102.222L1730 101.944L1729 101.778L1728 101.611L1727 101.389L1725 101.083L1724 101.028L1723 101L1721 101L1720 101L1716 101L1714 101L1710 101L1705 101L1703 101L1701 101L1700 101L1684 101M2177 101L2176 102L2176 106L2176 107L2176 208L2180 208L2184 208L2189 208L2189 204.944L2189 204L2189 101L2184 101L2179.06 101L2177 101M515 109L515 127L514 128L503 128L503 139L514 139L515 140L515 177L515 188L515 190L515 191L515.083 193L515.222 194L515.694 196L516.417 198L516.917 199L517.5 200L518.25 201L519.083 202L521 203.972L522 204.917L524 206.5L525 207.056L526 207.528L528 208.139L529 208.389L530 208.694L532 209.306L533 209.583L535 209.917L537 209.917L539 209.611L540 209.389L542 209.056L542.944 208.972L543.944 208.75L544.5 208.722L546 208L545.917 206.5L545.778 205.944L545.389 204L545.194 203L544.806 201L544.611 200.056L544.25 198.5L544 197L540.944 197L540 197L539 197L537 196.917L536 196.75L535 196.528L534 196.139L533.028 195.722L531.222 194.528L530.417 193.75L529.083 191.972L528.083 190L527.417 188L527.083 186L527.028 185L527 184L527 182L527 180L527 177L527 139L544 139L545 138L545 128L537 128L527 128L527 109L522 109L515 109M1414 109L1414 110.5L1414 127L1413 128L1410.94 128L1409.94 128L1406 128L1405.06 128L1404.06 128L1402 128L1402 139L1404.06 139L1405.06 139L1407 139L1408 139L1409 139L1410.94 139L1411.94 139L1414 139L1414 141.056L1414 147L1414 176L1414 177L1414 179L1414 187L1414 189L1414 190L1414.08 192L1414.47 194L1414.83 195L1415.61 197L1416.42 199L1416.92 200L1417.5 201L1419.08 202.972L1420.03 203.917L1422 205.528L1423 206.139L1424 206.722L1426 207.611L1427 207.972L1429 208.667L1431 209.306L1432 209.583L1434 209.917L1435 209.972L1437 209.917L1439 209.611L1440 209.361L1441.94 208.861L1442.94 208.611L1445 208L1445 206.5L1444.97 205.944L1444.78 204L1444.58 203L1444 201L1443.42 199.056L1443.25 198.5L1443 197L1439.94 197L1438 197L1436 196.917L1435 196.75L1434 196.5L1433 196.056L1432 195.5L1430.11 193.917L1429.31 192.972L1428.11 191L1427.42 189L1427.08 187L1427.03 186L1427 185L1427 183L1427 181L1427 177L1427 169L1427 166L1427 139L1435 139L1439 139L1440.94 139L1441.94 139L1444 139L1444 128L1441.94 128L1440.94 128L1439 128L1438 128L1436 128L1432 128L1430.06 128L1429.06 128L1427 128L1427 124L1427 122L1427 119L1427 118L1427 109L1424.94 109L1423.94 109L1423 109L1422 109L1420 109L1419 109L1417.06 109L1416.06 109L1414 109M1607 109L1607 111.056L1607 127L1606 128L1603.94 128L1602.94 128L1601 128L1599 128L1598.06 128L1596.5 128L1595 128L1595 139L1597.06 139L1599 139L1600 139L1601 139L1602 139L1606 139L1607 140L1607 141.5L1607 142.056L1607 145L1607 152L1607 177L1607 178L1607 187L1607 189L1607 190L1607.08 192L1607.39 194L1607.64 195L1607.89 196L1608.61 198L1609.11 199L1610.42 201L1612.08 202.972L1613.03 203.917L1614 204.778L1615 205.583L1617 206.889L1618 207.389L1620 208.111L1621 208.389L1622 208.694L1624 209.306L1625 209.583L1626 209.778L1627 209.917L1629 209.917L1631 209.611L1632 209.389L1634 209.056L1634.94 208.972L1635.94 208.75L1636.5 208.722L1638 208L1637.92 206.5L1637.78 205.944L1637.39 204L1637.06 202L1636.94 201L1636.58 199.056L1636 197L1633.94 197L1632.94 197L1631 196.972L1630 196.917L1628 196.583L1627 196.306L1625.03 195.583L1623.22 194.5L1621.72 192.917L1620.64 191L1620.31 190L1620.11 189L1620.03 188L1620 187L1620 185L1620 184L1620 182L1620 177L1620 169L1620 159L1620 139L1624 139L1628 139L1629 139L1631 139L1632.94 139L1633.94 139L1636 139L1637 138L1637 136.5L1637 134L1637 128L1635.5 128L1633.94 128L1633 128L1631 128L1629 128L1628 128L1624 128L1623.06 128L1622.06 128L1620 128L1620 124L1620 119L1620 109L1617.94 109L1616.94 109L1615 109L1611 109L1609.06 109L1607 109M1900 109L1900 117L1900 127L1899 128L1896.94 128L1895.94 128L1895 128L1894 128L1892 128L1891.06 128L1890.06 128L1888 128L1888 129.5L1888 139L1890.06 139L1891.06 139L1893 139L1894 139L1895 139L1896.94 139L1899 139L1900 140L1900 141.5L1900 142.056L1900 146L1900 157L1900 158L1900 169L1900 184L1900 188L1900 190L1900.08 192L1900.39 194L1900.64 195L1901.17 197L1901.47 198L1902.47 200L1903.86 201.917L1905.39 203.611L1906.22 204.361L1907.08 205.139L1909 206.528L1911 207.528L1913 208.139L1914 208.389L1916 209L1918 209.583L1920 209.917L1921 209.944L1922 209.917L1924 209.611L1926 209.222L1926.94 209.083L1928.5 209L1930 209L1931 208L1930.97 206.5L1930.92 205.944L1930.61 204L1930.36 203L1930.14 202L1929.58 200.056L1929.14 199.056L1928.97 198.5L1928 197L1925.94 197L1924.94 197L1924 197L1922 196.972L1920 196.694L1918 195.889L1917.03 195.278L1916.08 194.583L1914.5 192.917L1913.92 191.972L1913.03 190L1912.42 188L1912.08 186L1912.03 185L1912 184L1912 182L1912 180L1912 176L1912 174L1912 173L1912 164L1912 139L1914.06 139L1915.06 139L1917 139L1919 139L1920 139L1923 139L1925.94 139L1927.5 139L1929 139L1930 138L1930 128L1927.94 128L1926.94 128L1926 128L1924 128L1922 128L1921 128L1917 128L1916 128L1913.5 128L1912 128L1912 125.944L1912 121L1912 120L1912 117L1912 109L1908 109L1907 109L1904 109L1903.06 109L1902.06 109L1900 109z"/>
<path style="fill:#020202; stroke:none;" d="M361 113L360 114L360 154L361 155L376 155L382 155L384 155L385 154.972L386 154.917L388 154.583L390 154L391 153.694L392 153.417L394 153L395 152.778L396 152.5L398 151.5L399 150.75L400 149.917L401.889 148L402.694 147L403.361 146L404.361 144L405.167 142L405.75 140L405.917 139L406 137L406 136L406 134L406 132L405.917 130L405.778 129L405.583 128L405.306 127L404.611 125L403.722 123L402.528 121L400.917 119.083L399.972 118.25L399 117.472L397 116.278L396 115.861L395 115.444L393 114.861L392 114.639L391 114.361L390 114.139L388 113.639L387 113.389L385 113.083L384 113.028L382 113L380 113L377 113L361 113M1698 113L1697 114L1697 115.5L1697 117.056L1697 119L1697 120L1697 129L1697 137L1697 139L1697 157L1699.06 157L1700.06 157L1701 157L1705 157L1706 157L1707 157L1708 157L1712 157L1715 157L1719 157L1722 157L1723 157L1725 156.972L1726 156.917L1728 156.611L1729 156.361L1730 156.139L1732 155.528L1734 154.583L1735 153.972L1736.92 152.583L1738.58 150.917L1739.31 149.972L1740.58 148L1741.53 146L1741.83 145L1742.36 143L1742.61 142L1742.92 140L1742.97 139L1743 137L1743 135L1743 133L1743 132L1742.92 130L1742.78 129L1742.58 128L1741.97 126L1741.58 125L1740.58 123L1739.31 121.028L1738.58 120.083L1736.92 118.417L1735 117.028L1733 115.917L1732 115.472L1730 114.861L1729 114.639L1728 114.361L1727 114.139L1726 113.861L1725 113.639L1724 113.389L1722 113.083L1721 113.028L1720 113L1718 113L1716 113L1713 113L1711 113L1710 113L1708 113L1704 113L1703 113L1701.06 113L1700.06 113L1698 113z"/>
<path style="fill:#f6f6f6; stroke:none;" d="M497 189L495.5 188.972L493.944 188.694L493 188.389L491 187.583L489 186.889L487.056 186.389L486.056 186.222L485.5 186.083L484 186L483.667 187.5L483.361 188.056L482.889 189.056L481.583 191L479.917 192.917L478 194.528L477 195.139L475 196.222L474 196.75L472 197.528L471 197.75L470 197.944L468 198.222L467 198.389L466 198.611L464 198.833L462 198.611L461 198.361L459 197.861L458 197.611L456 196.972L455 196.583L453 195.583L451 194.306L450 193.583L448.083 191.917L446.417 190L445.694 189L444.389 187L443.833 186L443.278 185L442.389 183L441.694 181L441.417 180L441.083 178L441 176.056L441 175.056L441 173L498 173L498 164L498 162L497.972 160L497.917 159L497.611 157L497.389 156L497.222 155L496.944 153L496.583 151L496.306 150L495.611 148L495.167 147L494.75 146L494.222 145L493.75 144L492.611 142L491.306 140L490.583 139L488.917 137.028L487.972 136.083L486 134.389L485 133.639L483 132.167L482 131.472L480 130.417L478 129.611L476 128.833L475 128.472L473 128.056L472 127.944L470 127.611L469 127.389L467 127.083L465 127L463 127L461 127L459 127.083L458 127.222L457 127.389L455 127.806L453 128.222L452 128.472L451 128.833L449 129.639L448 130.056L446 131.083L445 131.694L443 133L442 133.694L440 135.222L438.083 137.028L436.417 139L435.694 140L434.389 142L433.25 144L432.778 145L432.222 146L431.778 147L431.25 148L430.389 150L430.028 151L429.389 153L429.139 154L428.639 156L428.389 157L428.083 159L428.028 160L428 162L428 163L428 168L428 174L428 176L428.028 177L428.083 178L428.389 180L428.611 181L429 183L429.222 184L429.472 185L430.194 187L430.611 188L431.417 190L431.889 191L432.417 192L433.611 194L434.194 195L435.472 197L437.083 199L438.028 199.972L439 200.917L441 202.583L442 203.306L444 204.611L445 205.194L447 206.361L448 206.944L450 207.917L452 208.667L453 209L455 209.583L457 209.917L458 209.972L460 210L461 210L463 210L466 210L468 210L470 210L472 209.917L473 209.778L474 209.583L476 209L478 208.389L480 207.833L481 207.528L483 206.583L485 205.333L486 204.667L487 204L489 202.583L489.972 201.778L490.917 200.917L491.778 199.972L492.583 199L493.972 197L494.611 196L495.722 194L496.528 192.056L496.917 190.5L497 189M555 147L556.5 147.444L557.056 147.667L558.056 148L559 148.333L561 149L563 149.583L563.944 149.778L565.5 149.972L567 150L568.472 147.944L570.083 146L571.028 145L573 143.083L575 141.472L576 140.861L577 140.278L578 139.861L579 139.472L581 139.083L583 139L584 139L586 139L588 139L590 139.028L591 139.083L593 139.417L595 140.111L596 140.639L597 141.306L598.972 143.028L600.75 145L602.056 147L602.5 148L602.917 150L603 152L603 153L603 154.944L603 158L601.5 158.5L600.944 158.806L599 159.528L597 159.917L596 159.972L594 160.028L593 160.083L591 160.389L590 160.611L588 160.917L587 160.972L585 161.083L583 161.389L581 161.861L580 162.139L578 162.611L576 162.944L575 163.056L573 163.389L572 163.639L571 163.861L569 164.389L568 164.694L566 165.389L564 166.25L563 166.778L561 167.861L560 168.472L559 169.25L558.028 170.083L557.083 171.028L555.417 173L554.111 175L553.611 176L552.889 178L552.389 180L552.083 182L552.028 183L552 185L552 187L552.028 188L552.083 189L552.389 191L552.861 193L553.444 195L554.278 197L554.833 198L556.028 200L557.417 201.917L559.083 203.583L561 205L562 205.667L564 206.917L566 207.917L567 208.306L569 209L571 209.583L573 209.917L575 210L576 210L577 210L579 210L582 210L584 210L586 209.972L587 209.889L589 209.389L591 208.528L592 208.056L594 207.167L595 206.722L597 205.528L599 203.917L600.944 202.111L601.944 201.306L602.5 200.778L604 200L604 208L616 208L616 161L616 153L616 151L616 150L615.917 148L615.583 146L615 144L614.306 142L613.917 141L612.917 139L611.583 137L610.778 136L608.972 134.083L608 133.25L607 132.472L605 131.25L604 130.778L603 130.222L602 129.778L601 129.25L599 128.472L597 128.083L595 127.917L594 127.778L592 127.389L591 127.222L590 127.083L588 127L586 127L584 127L583 127.028L582 127.083L580 127.389L579 127.611L577 128L575 128.389L573 128.861L572 129.167L571 129.444L570 129.861L568 130.778L567 131.25L565 132.389L564 133.028L562.028 134.417L560.222 136.083L559.389 137.028L558.639 138L557.861 139L556.472 141L555.5 143L555.25 143.944L555.028 145.5L555 147M872 127.389L871 127.611L869 128L867 128.472L866 128.833L864 129.611L862 130.417L861 130.917L860 131.472L858 132.861L857 133.639L856 134.389L854 136.083L852.083 138L850.417 140L849.694 141L848.389 143L847.833 144L846.778 146L846.25 147L845.444 149L845.167 150L844.861 151L844.306 153L843.694 155L843.389 156L842.861 158L842.639 159L842.222 161L842.083 162L842 164L842 165L842 166L842 168L842 170L842 171L842.028 173L842.083 174L842.389 176L842.611 177L843 179L843.417 181L843.694 182L844.306 184L844.861 186L845.167 187L845.444 188L846.25 190L846.778 191L847.25 192L848.389 194L849.028 195L850.417 197L852.083 199L853.028 200L855 201.917L857 203.583L858 204.306L860 205.611L861 206.167L862 206.722L863 207.167L864 207.611L866 208.306L867 208.611L868 208.861L870 209.361L871 209.611L873 209.917L874 209.972L876 210L877 210L879 210L881 210L882 210L883 210L885 209.917L886 209.778L887 209.583L889 209L891 208.333L893 207.611L895 206.75L896 206.222L897 205.75L898 205.139L899 204.556L901 203.139L902 202.361L902.972 201.611L904.778 199.917L905.583 198.972L907 197L907.667 196L908.972 194L909.611 193L910.75 191L911.222 190L911.75 189L912.528 187L912.778 186L913 185L913.417 183L913.694 182L914.306 180L914.583 179L914.917 177L914.972 176L915 174L915 172L915 169L915 166L915 164L915 162L914.917 160L914.778 159L914.361 157L913.861 155L913.306 153L912.611 151L912.194 150L911.361 148L910.944 147L909.944 145L909.361 144L908.167 142L907.528 141L905.917 139L904 137L903 136L901 134.083L900 133.25L899 132.472L897 131.25L896 130.778L895 130.25L894 129.833L893 129.389L891 128.694L890 128.417L889 128.194L887 127.806L885 127.389L883 127.083L882 127.028L881 127L879 127L877 127L876 127L874 127.083L872 127.389M1074 189L1072.5 188.917L1070.94 188.583L1070 188.306L1068 187.611L1067 187.194L1065.06 186.472L1063.5 186.083L1062 186L1061.47 187.5L1061.08 188.056L1060.5 189.056L1058.92 191L1057 192.972L1056 193.917L1054 195.528L1053 196.139L1052 196.722L1050 197.528L1048 198L1047 198.194L1045 198.611L1044 198.778L1043 198.889L1042 198.889L1040 198.611L1038 198.194L1036 197.778L1035 197.528L1033 196.75L1032 196.222L1031 195.75L1029 194.528L1028 193.75L1026.03 191.972L1025.08 191L1023.42 189L1022.03 187L1020.83 185L1020.28 184L1019.86 183L1019.44 182L1019.17 181L1018.86 180L1018.39 178L1018.08 176.056L1018.03 175.056L1018 173L1026 173L1034 173L1035 173L1043 173L1045 173L1046 173L1054 173L1055 173L1063 173L1064 173L1065 173L1066 173L1068 173L1069 173L1070 173L1071 173L1072.94 173L1073.94 173L1076 173L1076 165L1076 163L1075.97 161L1075.92 160L1075.61 158L1075.39 157L1075.22 156L1074.94 154L1074.75 153L1074.53 152L1074.17 151L1073.81 150L1073 148L1072.17 146L1071.75 145L1071.22 144L1070.75 143L1070.14 142L1068.83 140L1068.14 139L1066.61 137.083L1064.92 135.389L1063.97 134.639L1063 133.861L1061 132.444L1059 131.25L1058 130.778L1056 129.778L1055 129.25L1053 128.472L1051 128.056L1050 127.944L1048 127.611L1047 127.389L1045 127.083L1043 127L1041 127L1039 127L1037 127.083L1036 127.222L1035 127.389L1033 127.806L1031 128.194L1030 128.417L1028 129.028L1027 129.389L1026 129.833L1024 130.833L1023 131.389L1021 132.694L1020 133.417L1018 135.083L1016.03 137L1015.08 138L1013.42 140L1012.03 142L1011.39 143L1010.25 145L1009.78 146L1009.25 147L1008.39 149L1007.67 151L1007.33 152L1007 153L1006.42 155L1006.06 157L1005.94 158L1005.78 159L1005.39 161L1005.08 163L1005.03 164L1005 166L1005 169L1005 171L1005 172L1005 173L1005.08 175L1005.39 177L1005.61 178L1005.78 179L1005.94 180L1006.06 181L1006.42 183L1007.03 185L1007.39 186L1007.81 187L1008.64 189L1009.06 190L1010.06 192L1010.64 193L1011.83 195L1012.47 196L1014.08 198L1015.03 199L1016 200L1018 201.917L1019 202.778L1020 203.583L1021 204.306L1023 205.611L1025 206.722L1027 207.611L1028 207.972L1030 208.667L1031 209L1033 209.583L1035 209.917L1036 209.972L1038 210L1039 210L1040 210L1042 210L1043 210L1045 210L1047 210L1049 209.972L1050 209.917L1052 209.583L1054 209L1055 208.667L1057 207.972L1058 207.611L1060 206.75L1061 206.222L1062 205.75L1063 205.139L1064 204.556L1065 203.833L1065.97 203.139L1067.78 201.611L1069.36 199.917L1070.83 198L1071.56 197L1072.72 195L1073.53 193L1073.75 192.056L1073.97 190.5L1074 189M1276 127.389L1275 127.611L1273 127.944L1272 128.056L1270 128.472L1268 129.25L1267 129.778L1265 130.778L1264 131.25L1262 132.389L1261 133.028L1259 134.417L1257.03 136.083L1256.08 137.028L1254.42 139L1253 141L1252.33 142L1251.03 144L1249.89 146L1249.42 147L1248.67 149L1248 151L1247.39 153L1247.14 154L1246.64 156L1246.39 157L1246.08 159L1246 161L1245.92 163L1245.61 165L1245.39 166L1245.11 168L1245.11 169L1245.39 171L1245.61 172L1245.92 174L1245.97 175L1246.03 177L1246.08 178L1246.39 180L1246.86 182L1247.14 183L1247.64 185L1247.86 186L1248.17 187L1248.44 188L1248.86 189L1249.25 190L1249.78 191L1250.25 192L1251.44 194L1252.17 195L1253.64 197L1254.39 198L1256.08 200L1258 201.917L1260 203.583L1261 204.306L1263 205.611L1264 206.167L1265 206.722L1266 207.167L1267 207.611L1268 207.972L1270 208.667L1272 209.306L1273 209.583L1275 209.917L1277 210L1278 210L1279 210L1281 210L1282 210L1284 210L1286 210L1288 209.917L1290 209.611L1291 209.361L1293 208.861L1294 208.611L1296 207.917L1298 206.944L1299 206.361L1301 205.194L1302 204.611L1304 203.306L1305 202.583L1306.92 200.917L1308.61 199L1309.36 198L1310.14 197L1311.56 195L1312.14 194L1312.75 193L1313.22 192L1313.75 191L1314.61 189L1314.97 188L1315.67 186L1316.31 184L1316.61 183L1317.14 181L1317.36 180L1317.61 179L1317.92 177L1318 175L1318 173L1318 170L1318 165L1318 163L1318 161L1317.92 159L1317.58 157L1317 155L1316.67 154L1316 152L1315.33 150L1314.97 149L1314.61 148L1314.17 147L1313.72 146L1313.17 145L1312.61 144L1311.31 142L1310.58 141L1309 139L1307.39 137.083L1305.78 135.389L1303.97 133.861L1303 133.167L1302 132.444L1300 131.25L1299 130.778L1298 130.25L1297 129.833L1296 129.389L1294 128.694L1293 128.417L1291 128L1289 127.611L1288 127.389L1286 127.083L1285 127.028L1284 127L1282 127L1280 127L1278 127.083L1276 127.389M1343 140L1342.28 138.5L1342.25 137.944L1342.06 136.944L1342.03 136L1342 134L1342 132L1342 128L1340.5 128L1338.94 128L1338 128L1336 128L1332.06 128L1330 128L1330 130.056L1330 141L1330 143L1330 144L1330 149L1330 150L1330 160L1330 161L1330 162L1330 170L1330 208L1332.06 208L1333.06 208L1335 208L1336 208L1338 208L1342 208L1342 206.5L1342 172L1342 167L1342 165L1342.03 164L1342.08 163L1342.39 161L1342.61 160L1342.92 158L1343.03 156L1343.08 155L1343.47 153L1344.25 151L1344.78 150L1345.25 149L1346.47 147L1348.08 145.028L1349.03 144.083L1351 142.472L1352 141.833L1354 140.639L1356 139.639L1358 139.111L1359 139.028L1360 139L1362 139L1364 139L1366 139.083L1367 139.25L1368 139.472L1369 139.861L1371 140.833L1372 141.389L1373.92 142.694L1375.58 144.222L1376.31 145.083L1376.97 146.028L1378.17 148L1378.72 149L1379.61 151L1380.31 153L1380.58 154L1380.78 155L1380.92 156L1381 158L1381 160L1381 161L1381 163L1381 168L1381 208L1383.06 208L1384.06 208L1385 208L1386 208L1387 208L1389 208L1390 208L1394 208L1394 167L1394 160L1394 158L1394 157L1393.92 155L1393.78 154L1393.61 153L1393.22 151L1393.08 150L1392.92 148L1392.53 146L1392.17 145L1391.39 143L1390.58 141L1389.58 139L1388.31 137L1386.78 135L1385.92 134.028L1384.97 133.083L1383 131.472L1381 130.25L1380 129.778L1379 129.25L1377 128.472L1376 128.222L1375 128L1373 127.611L1372 127.389L1370 127.083L1368 127L1367 127L1366 127L1365 127L1363 127.083L1362 127.222L1361 127.389L1359 127.806L1357 128.194L1356 128.417L1354 129.083L1352 130.083L1350 131.417L1348 133.083L1346.08 135L1344.5 136.944L1343.53 138.5L1343 140M1520 190L1518.5 189.194L1517.94 189L1516 188.194L1515 187.806L1514 187.389L1513 187.028L1511.06 186.417L1509.5 186.083L1508 186L1506.94 187.5L1506.61 188.056L1505.31 190L1504.58 191L1502.92 192.917L1501 194.528L1500 195.167L1499 195.806L1497 196.917L1495 197.694L1493 198L1491 198.222L1489 198.583L1487 198.694L1486 198.583L1484 198.194L1482 197.806L1481 197.583L1479 196.917L1478 196.444L1476 195.361L1475 194.806L1473 193.528L1471.08 191.917L1470.22 190.972L1468.69 189L1467.42 187L1466.42 185L1466.03 184L1465.39 182L1465.14 181L1464.86 180L1464.61 179L1464 177L1463.69 176.056L1463.42 175.056L1463.25 174.5L1463 173L1464.5 173L1466.06 173L1469 173L1471 173L1475 173L1476 173L1484 173L1486 173L1490 173L1491 173L1495 173L1497 173L1498 173L1506 173L1510 173L1511 173L1515 173L1516 173L1518.94 173L1521 173L1522 172L1521.97 169.944L1521.92 168.944L1521.61 167L1521.39 166L1521.08 164L1521.03 163L1521 161L1521 159L1520.92 157L1520.78 156L1520.36 154L1520.14 153L1519.56 151L1519.17 150L1518.39 148L1517.61 146L1517.17 145L1516.72 144L1515.61 142L1514.31 140L1513.58 139L1512.78 138L1511.92 137L1510 135.083L1508 133.417L1506 132.028L1505 131.417L1504 130.889L1503 130.417L1501 129.611L1499 128.833L1498 128.472L1496 128.056L1495 127.944L1493 127.611L1492 127.389L1490 127.083L1488 127L1487 127L1486 127L1485 127L1483 127.083L1481 127.389L1480 127.611L1479 127.778L1477 128.056L1476 128.25L1475 128.472L1473 129.25L1472 129.778L1470 130.778L1469 131.25L1467 132.444L1465 133.861L1464 134.639L1463.03 135.389L1461.22 137.083L1459.64 139L1458.17 141L1457.44 142L1456.25 144L1455.78 145L1455.25 146L1454.83 147L1454.39 148L1453.67 150L1453.33 151L1452.61 153L1452.19 154L1451.47 156L1451.25 157L1451.08 158L1451 160L1450.97 162L1450.92 163L1450.61 165L1450.39 166L1450.11 168L1450.11 169L1450.39 171L1450.61 172L1450.92 174L1451 176L1451.08 178L1451.22 179L1451.42 180L1452 182L1452.31 183L1452.61 184L1453.17 186L1453.44 187L1453.83 188L1454.19 189L1455.06 191L1456.08 193L1456.69 194L1458 196L1459.42 198L1460.22 199L1462.03 200.917L1464 202.583L1465 203.306L1467 204.611L1469 205.75L1470 206.222L1472 207.222L1473 207.75L1475 208.556L1477 209.139L1478 209.361L1479 209.611L1481 209.917L1482 209.972L1484 210L1485 210L1486 210L1488 210L1489 210L1491 210L1492 210L1493 210L1495 209.917L1496 209.778L1497 209.583L1499 209L1500 208.694L1501 208.389L1502 208.139L1504 207.556L1506 206.722L1507 206.167L1509 204.972L1511 203.583L1513 201.917L1514.92 200L1516.53 198L1517.75 196L1518.22 195L1518.75 194L1519.14 193.056L1519.72 191.5L1520 190M1781 138L1781 134L1781 128L1778.94 128L1777.94 128L1776 128L1774 128L1772.06 128L1771.06 128L1769 128L1768 129L1768 133L1768 143L1768 144L1768 145L1768 150L1768 151L1768 158L1768 168L1768 208L1770.06 208L1772 208L1773 208L1774 208L1777 208L1781 208L1781 204.944L1781 203L1781 202L1781 198L1781 194L1781 188L1781 182L1781 176L1781 167L1781 165L1781 162L1781 160L1781.03 159L1781.08 158L1781.39 156L1781.64 155L1782.17 153L1782.44 152L1782.86 151L1783.28 150L1784.47 148L1786.08 146.028L1787.03 145.083L1789 143.417L1790 142.694L1792 141.417L1793 140.917L1794 140.5L1795 140.222L1797 139.806L1799 139.417L1800 139.306L1801 139.306L1803 139.611L1805 139.917L1805.94 139.972L1806.94 140L1809 140L1809 127L1805 127L1804 127L1802 127L1800 127L1798 127.083L1797 127.222L1796 127.417L1795 127.694L1793 128.389L1791 129.278L1790 129.833L1788.03 131.028L1787.08 131.694L1785.39 133.222L1783.83 134.972L1782.97 135.944L1781 138M1840 127.389L1838 127.806L1836 128.194L1835 128.417L1834 128.694L1832 129.389L1831 129.833L1830 130.25L1829 130.778L1828 131.25L1826 132.472L1825 133.25L1824 134.083L1822 136L1821 137L1819.08 139L1817.47 141L1816.83 142L1815.64 144L1815.06 145L1814.06 147L1813.64 148L1812.81 150L1812.39 151L1812.03 152L1811.42 154L1811.06 156L1810.94 157L1810.61 159L1810.39 160L1810.08 162L1810.03 163L1810 165L1810 166L1810 168L1810 170L1810 171L1810.03 173L1810.08 174L1810.39 176L1810.61 177L1810.92 179L1811.08 181L1811.42 183L1811.69 184L1812.39 186L1812.81 187L1813.19 188L1813.61 189L1814.42 191L1815.42 193L1816.03 194L1817.42 196L1819 197.972L1820.61 199.778L1821.39 200.611L1823.08 202.194L1824.03 203L1826 204.528L1828 205.75L1829 206.222L1830 206.75L1831 207.167L1832 207.611L1834 208.389L1836 209.167L1837 209.528L1839 209.917L1841 210L1842 210L1843 210L1845 210L1848 210L1850 210L1851 210L1853 209.917L1854 209.778L1855 209.583L1857 209L1858 208.667L1860 207.972L1861 207.611L1862 207.167L1863 206.722L1865 205.611L1867 204.306L1868 203.583L1869 202.778L1870 201.917L1871.97 200L1872.92 199L1874.58 197L1875.97 195L1876.61 194L1877.75 192L1878.22 191L1878.75 190L1879.17 189L1879.61 188L1879.97 187L1880.67 185L1881.31 183L1881.58 182L1881.94 180L1882.06 179L1882.22 178L1882.39 177L1882.61 176L1882.92 174L1883 172L1883 171L1883 169L1883 167L1883 166L1883 165L1882.92 163L1882.61 161L1882.39 160L1882.22 159L1882.06 158L1881.94 157L1881.58 155L1881 153L1880.67 152L1880.33 151L1879.61 149L1878.75 147L1878.22 146L1877.75 145L1876.61 143L1875.31 141L1874.58 140L1872.92 138L1871 136.083L1869 134.389L1868 133.639L1866 132.167L1865 131.444L1864 130.861L1863 130.278L1861 129.389L1860 129.028L1858 128.417L1856 128.056L1855 127.944L1853 127.611L1852 127.389L1850 127.083L1848 127L1846 127L1844 127L1842 127.083L1840 127.389M1966 127.389L1965 127.611L1963 128L1961 128.472L1960 128.833L1958 129.611L1956 130.417L1954 131.417L1953 132.028L1951 133.417L1949 135.083L1948 136.028L1946.08 138L1944.42 140L1943.69 141L1942.39 143L1941.83 144L1941.25 145L1940.78 146L1940.22 147L1939.78 148L1939.25 149L1938.44 151L1938.17 152L1937.86 153L1937.39 155L1937.19 156L1936.81 158L1936.61 159L1936.39 160L1936.08 162L1936.03 163L1936 165L1936 166L1936 168L1936 170L1936 171L1936.03 173L1936.08 174L1936.39 176L1936.61 177L1937 179L1937.42 181L1937.69 182L1938.31 184L1938.86 186L1939.17 187L1939.44 188L1940.25 190L1940.78 191L1941.22 192L1941.78 193L1942.25 194L1943.47 196L1944.25 197L1945.08 198L1947 200L1949 201.917L1951 203.583L1953 204.972L1954 205.611L1955 206.167L1957 207.222L1958 207.75L1959 208.139L1960 208.528L1961 208.75L1962 208.944L1964 209.222L1965 209.389L1966 209.611L1968 209.917L1970 210L1971 210L1973 210L1975 210L1976 210L1977 210L1979 209.917L1980 209.778L1981 209.583L1983 209L1985 208.333L1987 207.611L1989 206.75L1990 206.222L1991 205.75L1992 205.139L1994 203.833L1995.97 202.361L1996.92 201.611L1998.61 199.917L2000.14 198L2000.86 197L2001.61 196L2002.31 195L2003.61 193L2004.17 192L2004.72 191L2005.56 189L2006.14 187L2006.39 186L2007 184L2007.33 183L2008 181L2008.58 179L2008.78 178L2008.92 177L2009 175L2009 174L2009 172L2009 169L2009 166L2009 165L2008.97 163L2008.92 162L2008.61 160L2008.39 159L2008.19 158L2007.81 156L2007.39 154L2007.19 153L2006.72 151L2006.39 150L2005.5 148L2004.47 146L2003.36 144L2002.81 143L2002.17 142L2001.53 141L1999.92 139L1998 137L1997 136L1995 134.083L1994 133.25L1993 132.472L1991 131.25L1990 130.778L1989 130.25L1988 129.833L1987 129.389L1985 128.694L1984 128.417L1983 128.194L1981 127.806L1979 127.389L1977 127.083L1976 127.028L1975 127L1973 127L1971 127L1970 127L1968 127.083L1966 127.389M2085 185L2081 185L2079 185L2078 185L2076 185L2074.06 185L2072 185L2071.19 186.5L2071 187.056L2070.08 189L2069.5 190L2067.92 191.972L2066.97 192.917L2066 193.778L2064 195.306L2062 196.583L2060 197.5L2059 197.778L2058 198L2056 198.389L2055 198.611L2053 198.833L2051 198.611L2050 198.361L2048 197.833L2047 197.556L2045 196.75L2044 196.222L2043 195.75L2041 194.528L2040 193.75L2038.03 191.972L2036.25 190L2035.47 189L2034.86 188L2033.78 186L2033.25 185L2032.39 183L2032.03 182L2031.39 180L2031.14 179L2030.64 177L2030.39 176L2030.08 174L2030.03 173L2030 171L2030 170L2030 168L2030 166L2030 165L2030.08 163L2030.22 162L2030.39 161L2030.81 159L2031.22 157L2031.47 156L2032.25 154L2032.78 153L2033.83 151L2034.39 150L2035.69 148L2036.42 147L2038.08 145.083L2039.03 144.222L2040 143.417L2042 142.028L2044 140.833L2045 140.278L2047 139.472L2049 139.083L2050 139.028L2051 139L2053 139L2055 139L2056 139.028L2058 139.25L2059 139.472L2061 140.25L2062 140.778L2063 141.25L2065 142.472L2066.92 144.083L2068.53 146L2069.75 148L2070.22 149L2070.75 149.944L2071.17 150.944L2071.5 151.5L2072 153L2076 153L2080 153L2081 153L2085 153L2084.97 151.5L2084.78 149.944L2084.58 149L2084.31 148L2083.61 146L2083.17 145L2082.22 143L2081.75 142L2080.56 140L2079.83 139L2078.36 137.083L2076.78 135.389L2074.97 133.861L2074 133.167L2073 132.444L2071 131.25L2070 130.778L2068 129.778L2067 129.25L2065 128.472L2063 128.056L2062 127.944L2060 127.611L2059 127.389L2057 127.083L2055 127L2054 127L2052 127L2050 127L2049 127.028L2048 127.083L2046 127.389L2045 127.639L2044 127.861L2043 128.139L2042 128.389L2040 129.028L2039 129.389L2037 130.25L2036 130.778L2035 131.25L2033 132.472L2031 134.083L2030 135.028L2028 137L2026.08 139L2024.47 141L2023.83 142L2022.61 144L2021.42 146L2020.42 148L2020.03 149L2019.33 151L2019 152L2018.42 154L2018.06 156L2017.94 157L2017.78 158L2017.39 160L2017.08 162L2017.03 163L2017 165L2017 168L2017 171L2017 172L2017.03 174L2017.08 175L2017.39 177L2017.61 178L2017.78 179L2017.94 180L2018.06 181L2018.42 183L2019 185L2019.33 186L2019.67 187L2020.39 189L2021.25 191L2021.78 192L2022.25 193L2022.86 194L2023.44 195L2024.86 197L2025.64 198L2026.39 199L2028.08 200.917L2030 202.583L2032 204L2033 204.667L2035 205.972L2036 206.583L2038 207.583L2040 208.333L2041 208.667L2042 209L2044 209.583L2046 209.917L2047 209.972L2049 210L2050 210L2052 210L2055 210L2057 210L2058 210L2060 209.917L2062 209.583L2063 209.306L2065 208.667L2067 207.972L2068 207.611L2069 207.167L2070 206.722L2071 206.139L2072 205.556L2074 204.139L2075 203.361L2075.97 202.611L2077.78 200.917L2079.31 199L2079.97 198L2080.61 197L2081.17 196L2081.75 195L2082.75 193L2083.17 192L2083.61 191L2084.31 189L2084.58 188.056L2084.78 187.056L2084.92 186.5L2085 185M2122 127.389L2120 127.806L2118 128.194L2117 128.417L2115 129.028L2114 129.417L2112 130.417L2110 131.667L2109 132.333L2108 133L2106 134.417L2104 136.083L2102.08 138L2100.42 140L2099.03 142L2098.39 143L2097.83 144L2097.28 145L2096.39 147L2096.03 148L2095.67 149L2094.97 151L2094.19 153L2093.83 154L2093.47 155L2093 157L2092.61 159L2092.39 160L2092.08 162L2092.03 163L2092 165L2092 166L2092 168L2092 171L2092 172L2092 173L2092.08 175L2092.22 176L2092.42 177L2093 179L2093.31 180L2093.61 181L2094.14 183L2094.36 184L2094.64 185L2094.86 186L2095.44 188L2096.25 190L2096.78 191L2097.25 192L2098.39 194L2099.03 195L2100.42 197L2102.08 199L2103.03 200L2105 201.917L2107 203.583L2108 204.306L2110 205.611L2111 206.167L2112 206.722L2113 207.167L2114 207.611L2116 208.306L2117 208.611L2118 208.861L2120 209.361L2121 209.611L2123 209.917L2124 209.972L2126 210L2127 210L2129 210L2131 210L2132 210L2133 210L2135 209.917L2136 209.778L2137 209.583L2139 209L2140 208.667L2142 207.972L2143 207.611L2144 207.167L2146 206.222L2147 205.75L2149 204.556L2150 203.833L2152 202.361L2153.92 200.778L2155.58 198.972L2156.31 198L2157.67 196L2158.97 194L2159.61 193L2160.72 191L2161.61 189L2161.97 188L2162.61 186L2162.86 185L2163.36 183L2163.61 182L2163.94 180L2164.06 179L2164.39 177L2164.61 176L2164.92 174L2164.97 173L2165 171L2165 170L2165 168L2165 166L2165 165L2164.97 163L2164.92 162L2164.61 160L2164.39 159L2164.22 158L2164.06 157L2163.78 155L2163.58 154L2163.31 153L2162.61 151L2162.19 150L2161.36 148L2160.94 147L2159.94 145L2159.36 144L2158.17 142L2157.53 141L2155.92 139L2154 137L2153 136L2151 134.083L2150 133.25L2149 132.472L2147 131.25L2146 130.778L2145 130.25L2144 129.833L2143 129.389L2141 128.694L2140 128.417L2139 128.194L2137 127.806L2135 127.389L2133 127.083L2132 127.028L2131 127L2129 127L2127 127L2126 127L2124 127.083L2122 127.389M632 128L632 129.5L632 136L632 141L632 142L632 148L632 150L632 208L644 208L644 128L639 128L632 128M1525 128L1525.28 129.5L1525.86 131.056L1526.28 132L1527.39 134L1528.67 136L1529.33 137L1530.61 139L1531.19 140L1532.39 142L1533.67 144L1534.33 145L1535.67 147L1536.33 148L1536.97 149L1537.61 150L1538.19 151L1539.39 153L1540.03 154L1541.33 156L1542.67 158L1543.33 159L1544.61 161L1545.19 162L1546.39 164L1547.56 166L1547.97 167L1548.19 168L1547.81 170L1547.28 171L1546.03 173L1545.39 174L1544.19 176L1543.61 177L1542.33 179L1541.67 180L1540.39 182L1539.19 184L1538.61 185L1537.97 186L1537.33 187L1536.67 188L1535.39 190L1534.81 191L1533.61 193L1532.33 195L1531.67 196L1530.33 198L1529.67 199L1528.39 201L1527.81 202L1526.64 204L1526.08 204.944L1525.64 205.944L1525.33 206.5L1525 208L1529 208L1531 208L1535 208L1536.94 208L1540 208L1540.53 206.5L1540.89 205.944L1541.42 204.944L1542.61 203L1543.81 201L1544.39 200L1545.03 199L1545.67 198L1546.97 196L1547.61 195L1548.19 194L1549.39 192L1550.61 190L1551.81 188L1552.39 187L1553.03 186L1553.67 185L1554.33 184L1555.58 182.056L1556.11 181.056L1556.47 180.5L1557 179L1559 179L1559.33 180.5L1559.64 181.056L1560.64 183L1561.81 185L1562.39 186L1563.67 188L1564.33 189L1565.61 191L1566.19 192L1567.39 194L1568.61 196L1569.81 198L1570.39 199L1571.03 200L1571.67 201L1572.33 202L1573.61 204L1574.75 205.944L1575 206.5L1576 208L1580 208L1582 208L1587.94 208L1588.94 208L1591 208L1590.64 206.5L1590.31 205.944L1589.75 204.944L1588.39 203L1587 201L1585.67 199L1585.03 198L1584.39 197L1583.81 196L1582.61 194L1581.33 192L1580.67 191L1579.33 189L1578.67 188L1578.03 187L1577.39 186L1576.81 185L1575.61 183L1574.97 182L1573.67 180L1573 179L1571.67 177L1570.33 175L1569 173L1567.72 171L1566.94 169L1567.19 167L1567.67 166L1568.81 164L1569.39 163L1570.67 161L1571.33 160L1572.67 158L1573.33 157L1574.67 155L1575.33 154L1576.61 152L1577.19 151L1578.39 149L1579.03 148L1579.67 147L1581 145L1581.67 144L1583 142L1583.67 141L1584.97 139L1585.61 138L1586.81 136L1587.39 135L1588.03 134L1589.31 132L1589.89 131.056L1590.36 130.056L1590.67 129.5L1591 128L1589.5 128L1587.94 128L1587 128L1586 128L1585 128L1581 128L1578.06 128L1576 128L1575.47 129.5L1575.11 130.056L1574.58 131.056L1573.39 133L1572.81 134L1571.61 136L1570.39 138L1569.25 140L1568.75 141L1567.61 143L1566.39 145L1565.25 147L1564.75 148L1563.61 150L1562.39 152L1561.19 154L1560.64 155L1560.08 155.944L1559.64 156.944L1559.33 157.5L1559 159L1557 159L1556.47 157.5L1556.11 156.944L1555.58 155.944L1554.39 154L1553.25 152L1552.75 151L1551.61 149L1550.39 147L1549.81 146L1548.61 144L1547.39 142L1546.25 140L1545.75 139L1544.61 137L1543.39 135L1542.19 133L1541.61 132L1540.39 130.056L1540.06 129.5L1539 128L1535 128L1534 128L1530 128L1527.06 128L1525 128z"/>
<path style="fill:#020202; stroke:none;" d="M441 161L485 161L484.972 158.944L484.917 157.944L484.583 156L484.306 155L483.611 153L483.167 152L482.75 151L481.75 149L481.139 148L480.528 147L478.917 145L477 143.083L475 141.5L474 140.917L473 140.417L471 139.694L470 139.417L468 139.083L467 139.028L466 139L464 139L462 139L461 139L460 139L458 139.083L457 139.25L456 139.472L455 139.861L454 140.278L452 141.389L451 142.028L449 143.417L448.028 144.222L447.083 145.083L445.472 147L444.25 149L443.778 150L443.25 151L442.389 153L441.694 155L441.222 157L441.028 158.944L441 159.5L441 161M871 139.472L870 139.861L869 140.278L867 141.444L866 142.167L864.083 143.639L862.417 145.222L861.694 146.083L860.389 148L859.25 150L858.778 151L858.25 152L857.389 154L856.694 156L856.417 157L856.056 159L855.944 160L855.611 162L855.389 163L855.083 165L855.028 166L855 168L855 169L855 171L855 173L855.083 175L855.222 176L855.417 177L856 179L856.667 181L857.333 183L857.694 184L858.083 185L859.056 187L860.194 189L860.833 190L861.472 191L863.083 192.917L865 194.528L867 195.75L868 196.222L869 196.75L871 197.556L872 197.833L874 198.361L876 198.778L877 198.917L879 198.917L881 198.611L882 198.361L884 197.861L885 197.611L886 197.306L888 196.611L890 195.722L891 195.139L892 194.528L893.972 192.917L894.917 191.972L896.528 190L897.139 189L898.222 187L899.139 185L899.556 184L899.833 183L900.361 181L900.639 180L900.861 179L901.361 177L901.611 176L901.806 175L902.194 173L902.389 172L902.611 171L902.889 169L902.889 168L902.778 167L902.611 166L902.222 164L902.083 163L901.917 161L901.528 159L901.167 158L900.444 156L899.833 154L899.556 153L898.722 151L898.167 150L896.972 148L895.583 146L893.917 144.083L892 142.472L891 141.861L889 140.833L888 140.389L886 139.694L885 139.417L883 139.083L881 139L880 139L878 139L876 139L874 139.028L873 139.083L871 139.472M952 139.417L950 140.028L949 140.417L947 141.5L946 142.25L944.028 144.028L943.083 145L941.417 147L940.028 149L939.417 150L938.917 151L938.167 153L937.833 154L937.556 155L937.167 156L936.472 158L936.083 160L936 162L936 163L936 165L936 171L936 173L936.028 174L936.083 175L936.417 177L937 179L937.583 181L938 183L938.222 184L938.5 185L939.417 187L940.694 189L941.417 190L942.222 191L943.083 192L945 193.917L947 195.528L948 196.139L949 196.722L951 197.556L952 197.833L954 198.361L955 198.611L957 198.917L959 198.917L961 198.611L962 198.389L964 198L965 197.778L967 197.139L968 196.722L970 195.528L972 193.917L973.917 192L975.528 190L976.139 189L977.222 187L978.222 185L978.75 184L979.528 182L979.944 180L980.056 179L980.389 177L980.611 176L980.917 174L981 172L981 171L981 169L981 167L981 166L981 165L980.917 163L980.611 161L980.389 160L980.056 158L979.944 157L979.528 155L978.75 153L978.222 152L977.222 150L976.139 148L975.528 147L973.917 145L972 143.083L970 141.5L968 140.417L967 140.028L965 139.417L963 139.083L962 139.028L961 139L959 139L957 139L956 139L954 139.083L952 139.417M1018 161L1021.06 161L1031 161L1032 161L1033 161L1034 161L1038 161L1039 161L1042 161L1044 161L1045 161L1046 161L1048 161L1052 161L1054 161L1055 161L1057 161L1058 161L1059.94 161L1060.94 161L1063 161L1062.75 159.5L1062.36 157.944L1062.14 157L1061.86 156L1061.31 154L1061 153L1060.67 152L1059.92 150L1059.44 149L1058.92 148L1057.58 146L1055.92 144.083L1054.97 143.25L1054 142.472L1053 141.861L1051 140.833L1050 140.389L1048 139.694L1047 139.417L1045 139.083L1044 139.028L1042 139L1040 139L1039 139L1038 139L1036 139.083L1034 139.472L1033 139.861L1031 140.778L1029 141.861L1028 142.472L1026 144.083L1024.08 146L1023.25 147L1022.47 148L1021.25 150L1020.78 151L1020.25 152L1019.39 154L1018.69 156L1018.22 157.944L1018.03 159.5L1018 161M1274 139.472L1273 139.861L1272 140.278L1270 141.472L1269 142.25L1267.03 144.028L1266.08 145L1264.42 147L1263.03 149L1262.39 150L1261.83 151L1261.28 152L1260.83 153L1260.39 154L1259.69 156L1259.42 157L1259.06 159L1258.78 161L1258.61 162L1258.39 163L1258.08 165L1258 167L1258 168L1258 169L1258.08 171L1258.22 172L1258.39 173L1258.78 175L1258.92 176L1259.08 178L1259.42 180L1260.03 182L1260.39 183L1260.83 184L1261.25 185L1261.78 186L1262.25 187L1263.44 189L1264.86 190.972L1266.39 192.778L1267.22 193.583L1268.08 194.306L1270 195.611L1272 196.722L1274 197.556L1275 197.833L1277 198.361L1278 198.611L1280 198.917L1281 198.944L1282 198.917L1284 198.611L1285 198.389L1286 198.222L1288 197.944L1289 197.75L1290 197.528L1291 197.139L1292 196.722L1294 195.528L1295 194.75L1296.97 192.972L1297.92 192L1299.58 190L1300.28 189L1300.92 188L1301.44 187L1302.36 185L1303.17 183L1303.56 182L1303.83 181L1304.14 180L1304.61 178L1304.92 176L1305.08 174L1305.39 172L1305.61 171L1305.92 169L1305.94 168L1305.92 167L1305.61 165L1305.39 164L1305 162L1304.81 161L1304.61 160L1304.14 158L1303.86 157L1303.61 156L1302.97 154L1302.61 153L1301.75 151L1301.22 150L1300.75 149L1299.53 147L1298.75 146L1296.97 144.083L1296 143.25L1295 142.472L1293 141.278L1292 140.833L1291 140.389L1289 139.694L1288 139.417L1286 139.083L1285 139.028L1284 139L1282 139L1280 139L1279 139L1278 139L1276 139.083L1275 139.25L1274 139.472M1464 161L1466.06 161L1467.06 161L1468 161L1469 161L1473 161L1474 161L1475 161L1477 161L1478 161L1480 161L1487 161L1489 161L1490 161L1494 161L1495 161L1497 161L1501 161L1503 161L1504 161L1508 161L1508 158.944L1507.92 157L1507.53 155L1507.14 154L1506.22 152L1505.22 150L1504.75 149L1503.53 147L1502.75 146L1500.97 144.028L1500 143.083L1498 141.5L1497 140.917L1496 140.417L1494 139.694L1493 139.417L1491 139.083L1490 139.028L1489 139L1487 139L1485 139L1484 139L1483 139L1481 139.083L1480 139.25L1479 139.472L1478 139.861L1477 140.278L1476 140.833L1474 142.028L1472.03 143.417L1471.08 144.222L1469.42 146.028L1468.69 147L1467.39 149L1466.83 150L1466.28 151L1465.39 153L1465.03 154L1464.42 156L1464.08 157.944L1464 159.5L1464 161M1839 139.472L1838 139.861L1836 140.778L1835 141.25L1833 142.472L1831.08 144.083L1829.47 146L1828.19 148L1827.61 149L1826.42 151L1825.89 152L1825.42 153L1825.03 154L1824.39 156L1824.14 157L1823.64 159L1823.39 160L1823.08 162L1823 164L1823 165L1823 166L1823 168L1823 171L1823 172L1823.03 174L1823.08 175L1823.39 177L1823.64 178L1824.14 180L1824.39 181L1825.03 183L1825.39 184L1826.25 186L1826.78 187L1827.25 188L1828.47 190L1829.25 191L1830.08 191.972L1832 193.75L1833 194.528L1835 195.75L1836 196.222L1838 197.139L1839 197.556L1841 198.139L1842 198.361L1843 198.611L1845 198.917L1847 198.917L1849 198.611L1850 198.389L1852 198L1853 197.778L1854 197.528L1856 196.75L1857 196.222L1858 195.75L1860 194.528L1860.97 193.75L1861.92 192.917L1863.58 191L1864.92 189L1865.94 187L1866.36 186L1867.19 184L1867.97 182L1868.67 180L1869 179L1869.58 177L1869.78 176L1869.92 175L1870 173L1870 172L1870 171L1870 169L1870 166L1870 165L1870 164L1869.92 162L1869.78 161L1869.58 160L1869 158L1868.67 157L1867.97 155L1867.61 154L1866.75 152L1866.22 151L1865.75 150L1864.61 148L1863.97 147L1862.58 145.083L1860.92 143.417L1859.97 142.694L1858 141.417L1856 140.417L1855 140.028L1853 139.417L1851 139.083L1849 139L1848 139L1846 139L1844 139L1843 139L1841 139.083L1839 139.472M1965 139.472L1964 139.861L1963 140.278L1961 141.444L1960 142.167L1958.08 143.639L1956.42 145.222L1955.69 146.083L1954.39 148L1953.25 150L1952.78 151L1952.25 152L1951.39 154L1950.69 156L1950.42 157L1950.22 158L1950.06 159L1949.78 161L1949.61 162L1949.39 163L1949.08 165L1949 167L1949 168L1949 170L1949 172L1949.03 173L1949.08 174L1949.39 176L1949.64 177L1950.14 179L1950.39 180L1950.69 181L1951.33 183L1952.03 185L1952.42 186L1953.42 188L1954.69 190L1956.22 191.972L1957.08 192.917L1959 194.528L1961 195.75L1962 196.222L1964 197.167L1965 197.611L1967 198.306L1968 198.583L1970 198.917L1971 198.972L1973 198.917L1975 198.611L1976 198.389L1977 198.222L1978 198.056L1979 197.944L1981 197.5L1983 196.583L1984 195.972L1985 195.306L1987 193.778L1987.97 192.917L1988.92 191.972L1990.53 190L1991.14 189L1992.22 187L1992.75 186L1993.61 184L1994.31 182L1994.81 180L1995.19 178L1995.61 176L1995.78 175L1995.92 174L1996 172L1996 171L1996 170L1996 167L1996 165L1996 164L1995.92 162L1995.78 161L1995.58 160L1995 158L1994.69 157L1994.39 156L1994.14 155L1993.56 153L1992.72 151L1992.17 150L1990.97 148L1990.31 147L1988.78 145.083L1987.92 144.222L1986.97 143.417L1985 142.028L1984 141.417L1982 140.417L1981 140.028L1979 139.417L1977 139.083L1976 139.028L1975 139L1973 139L1971 139L1970 139L1969 139L1967 139.083L1966 139.25L1965 139.472M2121 139.472L2120 139.861L2119 140.278L2117 141.472L2116 142.25L2114 144.028L2112.08 146L2111.25 147L2110.47 148L2109.25 150L2108.78 151L2108.25 152L2107.39 154L2106.69 156L2106.42 157L2106.22 158L2106.06 159L2105.78 161L2105.61 162L2105.39 163L2105.08 165L2105 167L2105 168L2105 169L2105 171L2105 173L2105.03 174L2105.08 175L2105.42 177L2106 179L2106.33 180L2107 182L2107.67 184L2108.03 185L2108.42 186L2109.42 188L2110.03 189L2111.42 191L2113.08 192.917L2115 194.528L2116 195.139L2117 195.75L2119 196.75L2120 197.139L2121 197.556L2123 198.139L2124 198.361L2125 198.611L2127 198.917L2129 198.917L2131 198.611L2132 198.361L2134 197.861L2136 197.361L2137 197.111L2139 196.389L2140 195.889L2142 194.583L2143.97 192.917L2144.92 191.972L2146.53 190L2147.14 189L2148.22 187L2148.75 186L2149.56 184L2150.14 182L2150.36 181L2150.86 179L2151.14 178L2151.36 177L2151.61 176L2151.92 174L2151.97 173L2152 171L2152 170L2152 168L2152 166L2151.97 164L2151.92 163L2151.61 161L2151.39 160L2151.19 159L2150.81 157L2150.58 156L2150.31 155L2149.61 153L2148.72 151L2148.17 150L2147.61 149L2146.31 147L2145.58 146L2143.92 144.083L2142.97 143.25L2142 142.472L2140 141.278L2139 140.833L2138 140.389L2136 139.694L2135 139.417L2133 139.083L2132 139.028L2131 139L2129 139L2127 139L2126 139L2125 139L2123 139.083L2122 139.25L2121 139.472M604 170L601.944 170.028L600.944 170.083L599 170.389L598 170.611L597 170.806L595 171.194L594 171.389L592 171.778L590 171.972L588 172.028L587 172.083L585 172.389L584 172.639L583 172.861L582 173.139L581 173.361L580 173.611L578 173.917L576 174.111L575 174.306L573 175.083L572 175.639L570 176.833L569.028 177.472L567.25 179.083L566.5 180.028L565.5 182L565.083 184L565.028 186L565.083 187L565.417 189L566.028 191L566.917 192.917L567.5 193.778L568.25 194.583L570.028 195.972L571 196.583L573 197.528L574 197.833L576 198.361L577 198.611L579 198.917L581 199L582 199L584 198.917L586 198.611L587 198.361L589 197.833L590 197.556L592 196.75L593 196.222L595 195.139L596 194.528L597.917 192.917L599.583 191L600.889 189L601.778 187L602.389 185L602.694 184L603.306 182L603.583 181L603.917 179L603.972 178L604 177L604 175L604 170z"/>
</svg>
