<svg width="460" height="96" viewBox="0 0 460 96" fill="none" xmlns="http://www.w3.org/2000/svg">
<path d="M37.8113 38.8156V43.3113L34.0147 47.0863L37.8113 50.8614V55.2128L10.0372 82.8287C-3.35079 69.4088 -3.34501 47.6566 10.0502 34.2437L21.6562 22.6227L37.8113 38.8156Z" fill="#191919"/>
<path d="M11.2165 9.98047C24.6522 -3.38989 46.3624 -3.31728 59.7074 10.1426L71.2758 21.8107L55.0355 37.9721H50.7746L46.9777 34.1969L43.1808 37.9721H38.9691L11.2165 9.98047Z" fill="#191919"/>
<path d="M82.7836 84.0194C69.3479 97.3898 47.6377 97.3174 34.2927 83.8575L22.7241 72.1894L38.6196 56.3708L43.3064 56.3251L46.9777 59.9757L50.7213 56.2531L55.2106 56.2094L82.7836 84.0194Z" fill="#191919"/>
<path d="M83.9629 11.1712C97.3509 24.5912 97.3449 46.3436 83.9497 59.7564L72.3439 71.3775L56.1443 55.1398V50.8613L59.941 47.0863L56.1443 43.3112V38.8313L83.9629 11.1712Z" fill="#191919"/>
<path d="M142.317 81.488C136.055 81.488 130.661 80.124 126.135 77.396C121.671 74.606 118.23 70.638 115.812 65.492C113.394 60.346 112.185 54.208 112.185 47.078C112.185 39.948 113.394 33.81 115.812 28.664C118.23 23.456 121.671 19.457 126.135 16.667C130.661 13.877 136.055 12.482 142.317 12.482C148.641 12.482 154.035 13.877 158.499 16.667C163.025 19.457 166.497 23.456 168.915 28.664C171.333 33.81 172.542 39.948 172.542 47.078C172.542 54.208 171.333 60.346 168.915 65.492C166.497 70.638 163.025 74.606 158.499 77.396C154.035 80.124 148.641 81.488 142.317 81.488ZM142.317 73.676C146.905 73.676 150.811 72.622 154.035 70.514C157.321 68.406 159.832 65.368 161.568 61.4C163.304 57.432 164.172 52.658 164.172 47.078C164.172 41.498 163.304 36.724 161.568 32.756C159.832 28.726 157.321 25.657 154.035 23.549C150.811 21.379 146.905 20.294 142.317 20.294C137.791 20.294 133.885 21.379 130.599 23.549C127.375 25.657 124.895 28.726 123.159 32.756C121.423 36.724 120.555 41.498 120.555 47.078C120.555 52.658 121.423 57.432 123.159 61.4C124.895 65.368 127.375 68.406 130.599 70.514C133.885 72.622 137.791 73.676 142.317 73.676Z" fill="#191919"/>
<path d="M203.783 81.116C199.195 81.116 195.196 80.062 191.786 77.954C188.438 75.846 185.834 72.87 183.974 69.026C182.114 65.12 181.184 60.563 181.184 55.355C181.184 50.147 182.114 45.621 183.974 41.777C185.834 37.933 188.438 34.957 191.786 32.849C195.196 30.679 199.195 29.594 203.783 29.594C207.565 29.594 210.913 30.276 213.827 31.64C216.803 32.942 219.221 34.864 221.081 37.406C222.941 39.948 224.15 43.048 224.708 46.706L216.524 47.264C215.966 43.978 214.54 41.467 212.246 39.731C209.952 37.933 207.131 37.034 203.783 37.034C199.257 37.034 195.723 38.677 193.181 41.963C190.639 45.187 189.368 49.651 189.368 55.355C189.368 61.059 190.639 65.554 193.181 68.84C195.723 72.064 199.257 73.676 203.783 73.676C207.131 73.676 209.952 72.746 212.246 70.886C214.54 69.026 215.966 66.236 216.524 62.516L224.708 63.074C224.15 66.732 222.941 69.925 221.081 72.653C219.221 75.319 216.803 77.396 213.827 78.884C210.913 80.372 207.565 81.116 203.783 81.116Z" fill="#191919"/>
<path d="M249.598 80C245.134 80 241.817 78.977 239.647 76.931C237.539 74.885 236.485 71.692 236.485 67.352V19.178H244.297V67.166C244.297 69.398 244.793 70.948 245.785 71.816C246.777 72.684 248.296 73.118 250.342 73.118H257.41V80H249.598ZM229.231 37.592V30.71H257.41V37.592H229.231Z" fill="#191919"/>
<path d="M284.842 81.116C280.316 81.116 276.348 80.062 272.938 77.954C269.528 75.846 266.893 72.87 265.033 69.026C263.173 65.12 262.243 60.563 262.243 55.355C262.243 50.085 263.173 45.528 265.033 41.684C266.893 37.84 269.528 34.864 272.938 32.756C276.348 30.648 280.316 29.594 284.842 29.594C289.368 29.594 293.305 30.648 296.653 32.756C300.063 34.864 302.698 37.84 304.558 41.684C306.418 45.528 307.348 50.085 307.348 55.355C307.348 60.563 306.418 65.12 304.558 69.026C302.698 72.87 300.063 75.846 296.653 77.954C293.305 80.062 289.368 81.116 284.842 81.116ZM284.842 73.676C289.368 73.676 292.871 72.064 295.351 68.84C297.893 65.554 299.164 61.059 299.164 55.355C299.164 49.651 297.893 45.187 295.351 41.963C292.871 38.677 289.368 37.034 284.842 37.034C280.316 37.034 276.782 38.677 274.24 41.963C271.698 45.187 270.427 49.651 270.427 55.355C270.427 61.059 271.698 65.554 274.24 68.84C276.782 72.064 280.316 73.676 284.842 73.676Z" fill="#191919"/>
<path d="M335.758 95.066C332.224 95.066 329.031 94.477 326.179 93.299C323.327 92.121 320.94 90.447 319.018 88.277C317.096 86.107 315.794 83.596 315.112 80.744L323.296 80.186C324.04 82.48 325.342 84.278 327.202 85.58C329.124 86.944 331.976 87.626 335.758 87.626C340.222 87.626 343.632 86.727 345.988 84.929C348.406 83.131 349.615 80.434 349.615 76.838V68.84C348.437 71.444 346.546 73.521 343.942 75.071C341.338 76.621 338.424 77.396 335.2 77.396C331.046 77.396 327.326 76.373 324.04 74.327C320.816 72.281 318.274 69.46 316.414 65.864C314.616 62.268 313.717 58.145 313.717 53.495C313.717 48.783 314.616 44.66 316.414 41.126C318.212 37.53 320.692 34.709 323.854 32.663C327.078 30.617 330.736 29.594 334.828 29.594C338.3 29.594 341.4 30.4 344.128 32.012C346.918 33.624 348.871 35.794 349.987 38.522V30.71H357.427V76.652C357.427 80.496 356.559 83.782 354.823 86.51C353.087 89.3 350.607 91.408 347.383 92.834C344.159 94.322 340.284 95.066 335.758 95.066ZM335.572 69.956C339.788 69.956 343.167 68.499 345.709 65.585C348.251 62.609 349.553 58.579 349.615 53.495C349.677 50.085 349.119 47.171 347.941 44.753C346.825 42.273 345.182 40.382 343.012 39.08C340.904 37.716 338.424 37.034 335.572 37.034C331.232 37.034 327.853 38.522 325.435 41.498C323.079 44.412 321.901 48.411 321.901 53.495C321.901 58.579 323.11 62.609 325.528 65.585C328.008 68.499 331.356 69.956 335.572 69.956Z" fill="#191919"/>
<path d="M389.696 81.116C385.046 81.116 381.016 80.062 377.606 77.954C374.258 75.846 371.654 72.87 369.794 69.026C367.996 65.12 367.097 60.563 367.097 55.355C367.097 50.147 367.996 45.621 369.794 41.777C371.654 37.933 374.227 34.957 377.513 32.849C380.861 30.679 384.798 29.594 389.324 29.594C393.602 29.594 397.384 30.617 400.67 32.663C403.956 34.647 406.498 37.561 408.296 41.405C410.156 45.249 411.086 49.93 411.086 55.448V57.773H375.281C375.591 63.043 376.986 67.011 379.466 69.677C382.008 72.343 385.418 73.676 389.696 73.676C392.92 73.676 395.555 72.932 397.601 71.444C399.709 69.894 401.166 67.879 401.972 65.399L410.342 66.05C409.04 70.452 406.56 74.079 402.902 76.931C399.306 79.721 394.904 81.116 389.696 81.116ZM375.281 50.891H402.53C402.158 46.117 400.763 42.614 398.345 40.382C395.989 38.15 392.982 37.034 389.324 37.034C385.542 37.034 382.411 38.212 379.931 40.568C377.513 42.862 375.963 46.303 375.281 50.891Z" fill="#191919"/>
<path d="M420.738 80V30.71H427.899L428.178 43.265L427.248 42.428C427.868 39.514 428.953 37.127 430.503 35.267C432.053 33.345 433.913 31.919 436.083 30.989C438.315 30.059 440.702 29.594 443.244 29.594C447.026 29.594 450.126 30.431 452.544 32.105C455.024 33.779 456.853 36.042 458.031 38.894C459.271 41.684 459.891 44.815 459.891 48.287V80H452.079V50.519C452.079 47.481 451.707 44.939 450.963 42.893C450.281 40.785 449.165 39.204 447.615 38.15C446.065 37.034 444.05 36.476 441.57 36.476C437.788 36.476 434.657 37.685 432.177 40.103C429.759 42.459 428.55 45.931 428.55 50.519V80H420.738Z" fill="#191919"/>
</svg>
