<?xml version="1.0" standalone="yes"?>
<svg xmlns="http://www.w3.org/2000/svg" width="2200" height="358">
<path style="fill:#fefefe; stroke:none;" d="M0 0L0 358L2200 358L2200 0L0 0z"/>
<path style="fill:#060606; stroke:none;" d="M79 111C72.9152 123.121 70.6927 138.054 66.5756 151C62.0414 165.257 57.8019 179.633 53.5903 194C51.9363 199.642 50.2066 207.186 56.0586 210.991C62.6286 215.262 68.314 210.551 73 205.999C78.2469 200.903 83.7759 196.107 89.0008 190.985C106.999 173.345 125.193 155.8 143 138C153.51 127.494 163.579 115.838 175 106.326C186.953 96.3691 203.934 96.2282 214.787 108.09C223.751 117.889 223.749 131.47 216.211 142C210.457 150.039 201.954 156.049 195 163C181.37 176.625 168.101 190.775 154 203.91C147.132 210.309 137.728 216.668 133.093 225C130.675 229.347 131.485 235.241 136.108 237.821C140.722 240.396 145.441 237.98 149 234.906C155.604 229.201 161.831 223.169 168 217C182.533 202.467 197.067 187.998 212.015 173.907C218.543 167.752 224.42 159.849 232 154.969C242.792 148.021 256.57 149.544 265.96 158.185C274.976 166.482 277.9 180.208 271.637 191C268.282 196.78 262.681 201.319 258 206C237.156 226.844 215.84 247.16 195 268C187.017 275.983 177.983 283.58 170.681 292.17C158.049 307.028 170.096 320.096 181 331C185.159 335.159 189.844 341.732 196 342.768C203.465 344.024 209.555 337.19 205.972 330C202.728 323.489 195.03 318.157 190.005 313C187.977 310.918 184.676 308.273 185.921 305C187.373 301.185 192.181 297.819 195 295L216 274C232.497 257.503 249.489 241.511 266 225C274.24 216.76 284.65 208.736 289.677 198C300.381 175.138 290.405 148.013 268 136.81C259.346 132.483 250.468 132 241 132C241 109.706 230.932 88.7699 208 82.0432C201.662 80.1841 194.54 81 188 81C193.452 58.0995 180.308 33.0213 157 26.6412C151.859 25.2341 145.201 22.9297 140 25.01C135.196 26.9315 131.568 31.4334 128 35L107 56L32 131C24.9334 138.067 13.6427 145.98 9.17978 155C6.46761 160.481 9.71944 167.436 16.0039 167.872C23.7689 168.411 30.101 158.899 35 154L62 127C67.46 121.54 72.6776 115.454 79 111z"/>
<path style="fill:#fefefe; stroke:none;" d="M145 44.0424C141.106 45.8873 137.993 50.0068 135 53L117 71C114.576 73.4248 109.207 77.1883 109.207 81C109.207 85.0605 115.151 88.8097 118 90.9568C127.804 98.3448 141.343 102.157 153 96.6729C166.325 90.4039 174.585 75.3749 169.451 61C166.683 53.2479 154.618 39.4853 145 44.0424M101 98C97.0728 115.131 91.1719 132.206 85.9745 149C83.4427 157.181 80.2492 165.509 79 174C93.4445 163.825 105.303 148.415 117.961 136.09C124.313 129.903 133.208 124.132 137 116C128.188 114.813 119.422 111.37 112.004 106.455C108.068 103.847 105.244 100.055 101 98z"/>
<path style="fill:#060606; stroke:none;" d="M191 117.654C181.121 120.699 172.117 133.883 165 141C150.151 155.849 134.841 170.159 120 185C110.653 194.347 101.127 202.874 97.4282 216C87.5363 251.099 120.276 279.822 154 272.714C169.062 269.539 179.603 257.397 190 247C206.511 230.489 223.499 214.501 240 198C244.856 193.144 252.786 187.579 255.257 181C257.526 174.957 253.318 169.088 246.999 169.088C237.33 169.088 228.283 182.787 222 188.996C205.071 205.724 187.844 222.162 171 239C160.459 249.537 148.797 259.436 133 253.892C117.17 248.336 109.809 229.374 118.479 215C125.233 203.803 137.394 194.522 147 185.83C160.212 173.876 172.392 160.589 185 148C190.24 142.768 199.288 136.998 202.142 129.996C205.283 122.29 198.957 115.201 191 117.654M636.015 117.668C625.542 120.737 630.248 136.486 640.995 133.566C651.565 130.693 646.516 114.592 636.015 117.668M1236 194C1232.48 194 1226.56 192.888 1223.55 195.028C1219.11 198.179 1217.47 205.376 1212.91 209.1C1203.43 216.839 1189.94 218.107 1179 212.622C1149.49 197.821 1152.1 137.385 1188 132.21C1198.51 130.694 1209.41 134.082 1216.48 142.171C1219.07 145.136 1220.75 151.719 1224.3 153.397C1227.5 154.907 1232.54 154 1236 154C1231.8 122.808 1193.25 109.326 1168 126.105C1150.35 137.833 1145.17 159.035 1146.04 179C1146.82 196.776 1155.28 215.967 1172 224.099C1196.64 236.083 1233.33 224.538 1236 194M348 121L348 227L361 227L361 186L378 186C380.889 186.006 384.21 185.671 386.61 187.603C389.382 189.836 390.662 193.955 392.309 197L402.691 216C404.45 219.251 405.86 223.994 409.213 225.972C413.048 228.235 419.692 227 424 227C419.437 211.487 407.834 197.637 401 183C424.29 176.147 426.594 140.109 407.999 126.789C399.535 120.727 389.913 121 380 121L348 121M660 121L660 227L673 227L673 121L660 121M724 121L724 227L736 227L736 147C743.045 158.113 746.845 171.864 751.861 184C757.606 197.9 765.524 212.368 769 227C772.823 227 779.274 228.226 782.301 225.397C787.617 220.427 789.897 208.649 792.603 202C799.954 183.944 809.855 165.811 815 147C817.448 155.28 816 165.393 816 174L816 227L829 227L829 121C824.719 121 816.275 119.375 812.699 122.028C810.654 123.545 809.915 126.763 808.989 129L802.548 145C794.126 165.689 783.142 186.516 777 208L775 208C773.275 200.721 769.771 193.927 767 187C761.381 172.953 755.457 159.031 749.799 145L743.396 129C742.449 126.671 741.525 123.545 739.362 122.028C735.801 119.529 728.181 121 724 121M980 121L980 159C976.804 154.943 973.703 150.861 968.999 148.438C954.125 140.777 935.606 149.537 927.88 163C912.92 189.066 927.793 236.84 964 228.471C971.613 226.711 976.131 220.573 981 215L981 227L993 227L993 121L980 121M1086 121L1086 227L1099 227L1099 121L1086 121M1682 121L1682 227L1695 227L1695 189C1709.54 189 1726.95 191.404 1740 183.521C1759.5 171.741 1759.96 138.629 1741 126.108C1733.03 120.845 1724.15 121 1715 121L1682 121M2173 121L2173 227L2186 227L2186 121L2173 121M515 128L515 147L503 147L503 158L515 158L515 173C515 192.452 508.515 227.906 537 227.999C540.455 228.011 543.638 227.8 547 227L544 215C537.485 216.533 530.827 215.285 528.724 207.999C527.194 202.702 528 196.456 528 191L528 158L545 158L545 147L528 147L528 128L515 128M1413 128L1413 147L1401 147L1401 158L1413 158L1413 197C1413 203.396 1411.95 211.006 1414.65 217C1419.8 228.412 1433.44 229.731 1444 227C1443.46 222.829 1442.65 218.876 1441 215C1435.66 216.256 1429.16 215.912 1426.74 209.957C1424.79 205.133 1426 198.122 1426 193L1426 158L1443 158L1443 147L1426 147L1426 128L1413 128M1605 128L1605 147L1593 147L1593 158L1605 158L1605 197C1605 203.927 1603.97 211.688 1607.42 217.999C1611.2 224.913 1619.27 228.638 1627 228.66C1629.55 228.667 1634.17 228.432 1635.36 225.683C1636.48 223.082 1635.35 217.908 1632.69 216.603C1627.31 213.966 1621.52 216.154 1618.74 208.995C1616.93 204.345 1618 197.91 1618 193L1618 158L1635 158L1635 147L1618 147L1618 128L1605 128M1897 128L1897 147L1885 147L1885 158L1897 158L1897 197C1897 204.079 1896.45 212.663 1900.23 218.985C1904.11 225.486 1912.57 229.032 1920 228.624C1922.12 228.508 1925.57 228.274 1926.96 226.4C1929.04 223.577 1926.78 218.009 1926 215C1920.24 216.053 1914.36 215.984 1911.32 209.981C1908.87 205.151 1910 198.247 1910 193L1910 158L1927 158L1927 147L1910 147L1910 128L1897 128z"/>
<path style="fill:#fefefe; stroke:none;" d="M361 133L361 174C372.413 174 388.926 176.858 398.995 170.272C410.225 162.927 410.154 141.906 397.996 135.442C387.963 130.107 372.036 133 361 133M1695 133L1695 164C1695 167.121 1693.95 172.779 1696.03 175.397C1698.56 178.6 1707.37 177 1711 177C1719.66 177 1730.3 177.252 1736.36 169.815C1746.53 157.339 1740.86 135.235 1724 133.184C1714.57 132.037 1704.5 133 1695 133z"/>
<path style="fill:#060606; stroke:none;" d="M498 208L485 205C477.869 218.745 460.374 221.734 449.105 210.815C443.778 205.653 442.316 198.979 441 192L499 192C499 178.613 498.435 164.232 487.711 154.518C474.766 142.792 452.687 143.15 440.093 155.184C433.078 161.888 429.124 172.47 428.171 182C426.73 196.399 430.725 213.381 443.001 222.211C460.429 234.749 491.409 230.825 498 208M555 165C558.027 166.595 562.393 169.129 565.961 168.212C569.873 167.207 572.507 162.538 576.004 160.533C584.287 155.784 597.472 156.877 602.161 166.015C606.125 173.74 601.517 178.112 594 179.271C584.75 180.697 574.792 181.137 566 184.559C552.2 189.93 548.353 208.583 557.532 219.957C568.006 232.934 595.462 233.118 603 217C603.99 220.35 603.998 223.514 604 227L617 227L617 183C617 174.119 617.588 164.814 612.441 157.04C599.952 138.18 561.79 143.736 555 165M872 146.465C833.794 153.341 830.94 217.074 868 227.957C873.427 229.55 880.426 229.605 886 228.674C925.893 222.013 923.907 154.756 886 146.669C881.526 145.714 876.504 145.654 872 146.465M1074 208L1062 205C1058.99 209.409 1056.05 213.424 1051 215.633C1034.24 222.959 1018.36 208.689 1018 192L1075 192C1075 178.637 1074.93 163.916 1063.96 154.329C1042.15 135.275 1007.38 150.694 1005.09 179C1003.77 195.402 1005.98 213.727 1021 223.451C1037.31 234.007 1069.91 230.653 1074 208M1275 146.439C1236.23 152.544 1232.74 218.436 1271 228.239C1276.14 229.556 1282.77 229.547 1288 228.674C1326.94 222.172 1327.25 154.46 1289 146.808C1284.4 145.888 1279.64 145.708 1275 146.439M1342 159C1340.83 155.04 1341 151.113 1341 147L1329 147L1329 227L1341 227L1341 191C1341 183.797 1340.34 175.695 1343.57 169C1349.73 156.242 1368.24 154.006 1376.3 166.004C1380.14 171.727 1379 179.462 1379 186L1379 227L1392 227L1392 184C1392 175.554 1392.76 166.726 1388.67 159.001C1379.4 141.477 1351.1 141.47 1342 159M1518 208L1506 205C1503.91 208.63 1501.55 211.93 1498 214.297C1481.53 225.269 1462.78 209.005 1462 192L1520 192C1520 177.555 1518.97 163.249 1507 153.329C1493.58 142.205 1472.21 143.958 1460.09 156.093C1453.23 162.964 1449.46 173.389 1449.04 183C1448.34 198.887 1452.44 217.103 1468 224.865C1483.92 232.81 1515.55 230.529 1518 208M1780 158C1779.2 155.311 1779.72 150.804 1777.97 148.603C1775.74 145.783 1769.18 147 1766 147L1766 227L1779 227L1779 186C1779 176.021 1779.23 166.698 1789 161.089C1794.83 157.741 1800.68 158.87 1807 159L1807 146C1796.32 146 1784.53 146.416 1780 158M1838 146.439C1806.94 151.33 1798.29 196.002 1817.33 217.96C1825.4 227.272 1839.13 230.656 1851 228.674C1890.26 222.119 1890.58 154.525 1852 146.808C1847.4 145.888 1842.64 145.708 1838 146.439M1964 146.439C1932.62 151.38 1924.13 195.825 1943.33 217.96C1951.4 227.272 1965.13 230.656 1977 228.674C2016.15 222.137 2016.52 154.513 1978 146.808C1973.4 145.888 1968.64 145.708 1964 146.439M2082 204C2078.44 204 2072.71 202.922 2069.63 205.028C2067.59 206.431 2066.46 209.11 2064.79 210.907C2060.57 215.43 2054.28 218.402 2048 217.493C2022.2 213.758 2019.9 171.176 2041 160.05C2047.8 156.467 2057.07 157.404 2062.91 162.39C2065.55 164.649 2067.05 168.961 2070.26 170.397C2073.55 171.865 2078.47 171 2082 171C2078.51 147.687 2049.46 139.494 2031 151.388C2017.46 160.116 2013.64 175.818 2014.01 191C2014.33 204.029 2020.4 217.9 2032 224.637C2050.81 235.559 2078.56 226.947 2082 204M2120 146.439C2081.15 152.556 2077.67 218.419 2116 228.239C2121.14 229.556 2127.77 229.547 2133 228.674C2171.86 222.185 2172.13 154.448 2134 146.808C2129.4 145.887 2124.64 145.708 2120 146.439M632 147L632 227L645 227L645 147L632 147M1523 147C1526.13 156.83 1534.04 166.357 1539.66 175C1541.82 178.334 1545.84 182.896 1546.1 187C1546.36 191.249 1542.19 195.638 1540.05 199C1534.38 207.946 1526.76 217.086 1523 227C1527.05 227 1532.91 228.073 1536.67 226.397C1539.55 225.111 1541.09 221.521 1542.68 219C1547.04 212.097 1552.53 204.811 1555 197L1557 197C1559.24 204.626 1564.7 211.254 1568.8 218C1570.49 220.795 1572.16 224.982 1575.33 226.397C1579.09 228.073 1584.95 227 1589 227C1585.2 216.978 1577.45 208.079 1571.81 199C1569.76 195.71 1565.36 191.079 1565.55 187C1565.72 183.143 1569.61 179.139 1571.58 176C1577.3 166.851 1585.71 157.315 1589 147C1584.98 147 1578.9 145.881 1575.33 148.028C1572.23 149.884 1570.44 153.988 1568.72 157C1564.69 164.044 1559.3 171.19 1557 179L1555 179C1552.62 170.898 1547.11 163.233 1542.8 156C1541.21 153.336 1539.58 148.995 1536.61 147.603C1532.95 145.888 1526.98 147 1523 147z"/>
<path style="fill:#fefefe; stroke:none;" d="M441 181L486 181C485.415 173.845 482.937 166.112 476.96 161.638C461.702 150.216 441.879 163.873 441 181M872 158.532C863.42 160.577 858.683 168.012 856.428 176C851.222 194.446 859.992 222.903 884 216.957C913.758 209.586 906.033 150.424 872 158.532M952 158.532C924.659 165.046 931.339 224.209 962 217.319C991.144 210.769 985.926 150.45 952 158.532M1018 181L1062 181C1061.37 173.116 1058.91 165.339 1052 160.703C1036.54 150.336 1018.35 164.657 1018 181M1274 158.533C1265.15 160.683 1259.86 169.631 1258.26 178C1254.98 195.128 1261.88 222.59 1285 217.319C1315.74 210.312 1308.79 150.078 1274 158.533M1462 181L1506 181C1505.95 175.238 1504.94 169.772 1501.36 165.043C1488.14 147.554 1462.85 162.472 1462 181M1838 158.529C1808.47 165.357 1816.92 225.297 1850 216.956C1879.32 209.563 1871.48 150.791 1838 158.529M1963 158.638C1934.04 167.01 1943.87 226.572 1977 216.695C1986.76 213.785 1991.94 203.459 1993.05 194C1994.85 178.635 1989.88 158.228 1971 158.004C1968.34 157.972 1965.58 157.893 1963 158.638M2119 158.533C2109.35 160.879 2104.17 170.953 2102.87 180C2100.32 197.693 2108.38 222.532 2131 216.957C2160.83 209.605 2153.33 150.189 2119 158.533M604 188C595.425 190.27 586.525 190.524 578 192.76C568.806 195.171 559.648 205.18 569.133 213.606C579.319 222.653 597.829 217.064 602.713 205C604.827 199.779 604 193.52 604 188z"/>
</svg>
